<svg viewBox="0 0 24 24" xmlns="http://www.w3.org/2000/svg" xmlns:xlink="http://www.w3.org/1999/xlink" width="24.000000" height="24.000000" fill="none" customFrame="#000000">
	<defs>
		<linearGradient id="paint_linear_26" x1="12.0000143" x2="12.0000143" y1="0" y2="23.9999981" gradientUnits="userSpaceOnUse">
			<stop stop-color="rgb(113,113,113)" offset="0" stop-opacity="1" />
			<stop stop-color="rgb(73,73,73)" offset="0.362869203" stop-opacity="1" />
			<stop stop-color="rgb(104,103,103)" offset="1" stop-opacity="1" />
		</linearGradient>
		<clipPath id="clipPath_8">
			<rect width="16.000006" height="14.000005" x="4.000000" y="5.000000" fill="rgb(255,255,255)" />
		</clipPath>
	</defs>
	<rect id="iconpro_digitalassistant" width="24.000008" height="24.000000" x="0.000000" y="0.000000" />
	<path id="路径" d="M0.00291622 11.9902C0.00291622 10.1155 -0.00364527 8.24081 0.00291622 6.3661C-0.00085548 5.45892 0.110645 4.55495 0.33474 3.67588C0.825915 1.81523 2.03792 0.711029 3.89669 0.282658C4.82871 0.0812877 5.78066 -0.0130583 6.73407 0.001451C10.3291 0.001451 13.9245 0.001451 17.5202 0.001451C18.4283 -0.00418604 19.3338 0.0996723 20.217 0.310778C22.132 0.779456 23.2812 1.99239 23.719 3.90085C23.9158 4.80282 24.0098 5.72417 23.9992 6.6473C23.9992 10.2811 23.9992 13.9152 23.9992 17.5497C24.0041 18.449 23.9006 19.3457 23.6908 20.2202C23.2222 22.1362 22.0036 23.2797 20.0951 23.7175C19.163 23.9181 18.2111 24.0124 17.2578 23.9987C13.6777 23.9987 10.0979 23.9987 6.51848 23.9987C5.60345 24.0062 4.69082 23.9039 3.80015 23.694C1.87669 23.2254 0.721868 22.0068 0.28506 20.089C0.0619697 19.1141 0.00291622 18.1365 0.00291622 17.1504C0.00291622 15.4306 0.00291622 13.7106 0.00291622 11.9902Z" fill="url(#paint_linear_26)" fill-rule="evenodd" />
	<g id="ic_public_tablet" clip-path="url(#clipPath_8)" customFrame="url(#clipPath_8)">
		<rect id="ic_public_tablet" width="16.000006" height="14.000005" x="4.000000" y="5.000000" />
		<rect id="矩形 18474" width="14.000005" height="12.000004" x="5.000000" y="6.000000" rx="2.000001" fill="rgb(255,255,255)" />
		<path id="path5" d="M11.8 9.16807C11.8042 9.07463 11.8921 9 12 9C12.1105 9 12.2 9.07838 12.2 9.17507C12.2 9.27176 12.1105 9.35014 12 9.35014C11.8922 9.35014 11.8043 9.27551 11.8 9.18207" fill-rule="evenodd" stroke="rgb(128,128,128)" stroke-linecap="round" stroke-width="2.50000095" />
		<line id="path6" x1="9.00017452" x2="15.0001774" y1="15" y2="15" stroke="rgb(128,128,128)" stroke-linecap="round" stroke-width="2.00000072" />
	</g>
</svg>
