<svg viewBox="0 0 28 28" xmlns="http://www.w3.org/2000/svg" xmlns:xlink="http://www.w3.org/1999/xlink" width="28.000000" height="28.000000" fill="none" customFrame="#000000">
	<defs>
		<linearGradient id="paint_linear_50" x1="17.498436" x2="13.4865036" y1="23.6535015" y2="8.67296505" gradientUnits="userSpaceOnUse">
			<stop stop-color="rgb(255,255,255)" offset="0" stop-opacity="0.905882359" />
			<stop stop-color="rgb(255,255,255)" offset="0.66679883" stop-opacity="0.800000012" />
			<stop stop-color="rgb(255,255,255)" offset="1" stop-opacity="1" />
		</linearGradient>
		<linearGradient id="paint_linear_51" x1="15.4240513" x2="14.6679726" y1="18.4246101" y2="12.4541779" gradientUnits="userSpaceOnUse">
			<stop stop-color="rgb(0,0,0)" offset="0" stop-opacity="0" />
			<stop stop-color="rgb(0,0,0)" offset="1" stop-opacity="1" />
		</linearGradient>
		<linearGradient id="paint_linear_52" x1="20.3984375" x2="18.4421043" y1="23.8139629" y2="13.7696924" gradientUnits="userSpaceOnUse">
			<stop stop-color="rgb(255,255,255)" offset="0" stop-opacity="0.905882359" />
			<stop stop-color="rgb(255,255,255)" offset="0.66679883" stop-opacity="0.800000012" />
			<stop stop-color="rgb(255,255,255)" offset="1" stop-opacity="1" />
		</linearGradient>
	</defs>
	<g id="ico07">
		<rect id="矩形备份 8" width="28.000000" height="28.000000" x="0.000000" y="0.000000" rx="5.600000" fill="rgb(20,118,255)" />
		<path id="路径备份" d="M23.0984 7.7L23.0984 10.5C23.0984 10.8866 22.785 11.2 22.3984 11.2L16.7984 11.2C16.4118 11.2 16.0984 11.5134 16.0984 11.9L16.0984 21.7C16.0984 22.0866 15.785 22.4 15.3984 22.4L12.5984 22.4C12.2118 22.4 11.8984 22.0866 11.8984 21.7L11.8984 10.5C11.8984 8.567 13.4654 7 15.3984 7L22.3984 7C22.785 7 23.0984 7.3134 23.0984 7.7Z" fill="url(#paint_linear_50)" fill-rule="evenodd" />
		<path id="形状结合" d="M10.1516 11.2L6.30156 11.2C5.91496 11.2 5.60156 10.8866 5.60156 10.5L5.60156 7.7C5.60156 7.3134 5.91496 7 6.30156 7L12.251 7C10.9762 7.95784 10.1516 9.48262 10.1516 11.2Z" fill="rgb(255,255,255)" fill-rule="evenodd" />
		<g style="mix-blend-mode:soft-light">
			<path id="路径 44备份" d="M16.7986 11.2009C15.3585 11.2009 11.8986 11.0863 11.8986 15.9937C11.8986 16.6873 11.8978 18.4091 11.8997 18.9014C11.9125 22.2561 16.1005 19.6709 16.1005 18.2066C16.1005 16.5012 16.1005 12.258 16.1005 11.9103C16.1005 11.5626 16.3665 11.2009 16.7986 11.2009Z" fill="url(#paint_linear_51)" fill-rule="evenodd" />
		</g>
		<g id="组合 36335">
			<path id="多边形 1" d="M23.8952 15.0189C24.4109 15.3166 24.7286 15.8668 24.7286 16.4623L24.7286 19.5378C24.7286 20.1332 24.4109 20.6834 23.8952 20.9811L21.2318 22.5189C20.7161 22.8166 20.0808 22.8166 19.5651 22.5189L16.9016 20.9811C16.386 20.6834 16.0683 20.1332 16.0683 19.5378L16.0683 16.4623C16.0683 15.8668 16.386 15.3166 16.9016 15.0189L19.5651 13.4811C20.0808 13.1834 20.7161 13.1834 21.2318 13.4811L23.8952 15.0189Z" fill="url(#paint_linear_52)" fill-rule="evenodd" />
			<path id="多边形 1" d="M25.4203 14.1038Q25.1153 13.7988 24.7286 13.5755L22.0651 12.0378Q21.6784 11.8145 21.2617 11.7028Q20.845 11.5912 20.3984 11.5912Q19.9519 11.5912 19.5352 11.7028Q19.1185 11.8145 18.7318 12.0377L16.0683 13.5755Q15.6816 13.7988 15.3765 14.1038Q15.0715 14.4088 14.8482 14.7956Q14.6249 15.1823 14.5133 15.599Q14.4016 16.0157 14.4016 16.4623L14.4016 19.5377Q14.4016 19.9843 14.5133 20.401Q14.6249 20.8177 14.8482 21.2044Q15.0715 21.5912 15.3765 21.8962Q15.6816 22.2012 16.0683 22.4245L18.7318 23.9623Q19.1185 24.1855 19.5352 24.2972Q19.9518 24.4088 20.3984 24.4088Q20.845 24.4088 21.2617 24.2972Q21.6784 24.1855 22.0651 23.9622L24.7286 22.4245Q25.1153 22.2012 25.4203 21.8962Q25.7254 21.5912 25.9486 21.2044Q26.1719 20.8177 26.2836 20.401Q26.3952 19.9843 26.3952 19.5378L26.3952 16.4623Q26.3952 16.0157 26.2836 15.599Q26.1719 15.1823 25.9486 14.7956Q25.7254 14.4088 25.4203 14.1038ZM24.7286 16.4623C24.7286 15.8668 24.4109 15.3166 23.8952 15.0189L21.2318 13.4811C20.7161 13.1834 20.0808 13.1834 19.5651 13.4811L16.9016 15.0189C16.386 15.3166 16.0683 15.8668 16.0683 16.4623L16.0683 19.5378C16.0683 20.1332 16.386 20.6834 16.9016 20.9811L19.5651 22.5189C20.0808 22.8166 20.7161 22.8166 21.2318 22.5189L23.8952 20.9811C24.4109 20.6834 24.7286 20.1332 24.7286 19.5378L24.7286 16.4623Z" fill="rgb(20,118,255)" fill-rule="evenodd" />
			<path id="矢量 2519" d="M21.4697 19.4217L19.3252 19.4217C19.2286 19.4217 19.1406 19.4774 19.0993 19.5647L18.8461 20.0991C18.7301 20.3439 18.4835 20.5 18.2126 20.5C17.6887 20.5 17.3499 19.9461 17.5887 19.4797L19.271 16.193C19.4887 15.7676 19.9263 15.5 20.4042 15.5C20.8829 15.5 21.3211 15.7685 21.5384 16.1949L23.2121 19.4781C23.4505 19.9457 23.1109 20.5 22.5861 20.5C22.3155 20.5 22.069 20.3447 21.9522 20.1006L21.6953 19.5638C21.6537 19.477 21.566 19.4217 21.4697 19.4217ZM19.9394 18.6353L20.8612 18.6353C21.0449 18.6353 21.1659 18.4437 21.0869 18.2778L20.418 16.8736C20.3989 16.8736 20.3815 16.8846 20.3732 16.9018L19.7139 18.2772C19.6344 18.4432 19.7553 18.6353 19.9394 18.6353Z" opacity="0" fill="rgb(20,118,255)" fill-rule="nonzero" />
			<path id="矢量 2520" d="M21.6009 19.4217L19.2257 19.4217C19.129 19.4217 19.0411 19.4774 18.9997 19.5647L18.7309 20.1321C18.6245 20.3568 18.3981 20.5 18.1496 20.5C17.6687 20.5 17.3578 19.9917 17.5769 19.5636L19.3022 16.193C19.52 15.7676 19.9576 15.5 20.4355 15.5C20.9141 15.5 21.3523 15.7685 21.5697 16.1949L23.2761 19.5423C23.4995 19.9805 23.1812 20.5 22.6894 20.5C22.4358 20.5 22.2048 20.3544 22.0953 20.1257L21.8264 19.5638C21.7849 19.477 21.6971 19.4217 21.6009 19.4217ZM19.8669 18.6353L20.9923 18.6353C21.1761 18.6353 21.2971 18.4437 21.218 18.2778L20.5491 16.8736C20.4682 16.8736 20.3936 16.9176 20.3544 16.9884L19.6482 18.2642C19.5559 18.4309 19.6764 18.6353 19.8669 18.6353Z" fill="rgb(20,118,255)" fill-rule="nonzero" />
		</g>
	</g>
</svg>
