<svg viewBox="0 0 420 280" xmlns="http://www.w3.org/2000/svg" xmlns:xlink="http://www.w3.org/1999/xlink" width="420.000000" height="280.000000" fill="none">
	<defs>
		<g id="pixso_custom_effect_68">
			<effect x="0.000000" y="0.000000" visibility="visible" fill="rgb(0,0,0)" fill-opacity="0.0392156877" effectType="dropShadow" stdDeviation="20" radius="0" />
		</g>
		<filter id="filter_68" width="412.000000" height="278.000000" x="4.000000" y="1.000000" filterUnits="userSpaceOnUse" customEffect="url(#pixso_custom_effect_68)" color-interpolation-filters="sRGB">
			<feFlood flood-opacity="0" result="BackgroundImageFix" />
			<feColorMatrix result="hardAlpha" in="SourceAlpha" type="matrix" values="0 0 0 0 0 0 0 0 0 0 0 0 0 0 0 0 0 0 127 0 " />
			<feOffset dx="0.000000" dy="0.000000" in="hardAlpha" />
			<feGaussianBlur stdDeviation="6.66666651" />
			<feComposite k2="-1" k3="1" in2="hardAlpha" operator="out" />
			<feColorMatrix type="matrix" values="0 0 0 0 0 0 0 0 0 0 0 0 0 0 0 0 0 0 0.0392157 0 " />
			<feBlend result="effect_dropShadow_1" in2="BackgroundImageFix" mode="normal" />
			<feBlend result="shape" in="SourceGraphic" in2="effect_dropShadow_1" mode="normal" />
		</filter>
		<clipPath id="clipPath_101">
			<rect width="372.000000" height="238.000000" x="24.000000" y="21.000000" rx="24.000000" fill="rgb(255,255,255)" />
		</clipPath>
		<clipPath id="clipPath_102">
			<rect width="332.000000" height="40.000000" x="44.000000" y="215.000000" rx="12.000000" fill="rgb(255,255,255)" />
		</clipPath>
		<clipPath id="clipPath_103">
			<rect width="332.000000" height="40.000000" x="44.000000" y="167.000000" rx="12.000000" fill="rgb(255,255,255)" />
		</clipPath>
		<clipPath id="clipPath_104">
			<rect width="332.000000" height="40.000000" x="44.000000" y="119.000000" rx="12.000000" fill="rgb(255,255,255)" />
		</clipPath>
		<clipPath id="clipPath_105">
			<rect width="332.000000" height="32.000000" x="44.000000" y="79.000000" rx="16.000000" fill="rgb(255,255,255)" />
		</clipPath>
		<clipPath id="clipPath_106">
			<rect width="16.000000" height="16.000000" x="376.000000" y="87.000000" fill="rgb(255,255,255)" />
		</clipPath>
		<clipPath id="clipPath_107">
			<rect width="16.000000" height="16.000000" x="376.000000" y="87.000000" fill="rgb(255,255,255)" />
		</clipPath>
		<clipPath id="clipPath_108">
			<rect width="16.000000" height="16.000000" x="56.000000" y="87.000000" fill="rgb(255,255,255)" />
		</clipPath>
	</defs>
	<rect id="5_bg6" width="420.000000" height="280.000000" x="0.000000" y="0.000000" fill="rgb(248,248,248)" fill-opacity="0" />
	<g id="历史对话弹窗" clip-path="url(#clipPath_101)" filter="url(#filter_68)" customFrame="url(#clipPath_101)">
		<rect id="历史对话弹窗" width="372.000000" height="238.000000" x="24.000000" y="21.000000" rx="24.000000" fill="rgb(255,255,255)" />
		<g id="历史对话列表" customFrame="url(#clipPath_102)">
			<rect id="历史对话列表" width="332.000000" height="40.000000" x="44.000000" y="215.000000" rx="12.000000" fill="rgb(255,255,255)" />
			<path id="" d="M69.019 229.247L57.791 229.247L57.791 234.371C57.75 237.061 57.3296 239.173 56.5332 240.687L57.3159 241.388C58.2695 239.621 58.7583 237.283 58.813 234.371L58.813 230.228L69.019 230.228L69.019 229.247ZM68.4312 233.407L64.2612 233.407L64.3022 232.299L64.3022 230.942L63.2803 230.942L63.2803 232.299L63.2393 233.407L59.8623 233.407L59.8623 234.316L63.1538 234.316C63.0137 235.519 62.7471 236.555 62.3574 237.437C61.7251 238.698 60.6211 239.72 59.0386 240.489L59.5991 241.371C61.2227 240.615 62.3984 239.552 63.1265 238.182C63.6597 237.143 64.0083 235.857 64.1758 234.316L67.4229 234.316C67.3818 237.002 67.269 238.67 67.0879 239.313C66.9204 239.959 66.4863 240.28 65.7856 240.308C65.3516 240.294 64.791 240.267 64.1074 240.239L64.3706 241.189C65.0166 241.217 65.5771 241.23 66.0249 241.23C66.8931 241.23 67.5083 240.854 67.8706 240.126C68.2227 239.385 68.4038 237.143 68.4312 233.407ZM72.0439 230.368L72.0439 235.239L76.5386 235.239C76.4121 236.387 76.0771 237.313 75.5166 238.024C74.6211 237.454 73.8213 236.767 73.0933 235.953L72.2832 236.527C73.0386 237.368 73.8794 238.096 74.8022 238.725C73.835 239.48 72.5054 240.085 70.7964 240.52L71.3706 241.415C73.2334 240.937 74.6895 240.239 75.7251 239.313C77.8135 240.52 80.2607 241.189 83.0771 241.343L83.3403 240.349C80.6812 240.226 78.3706 239.621 76.4121 238.558C77.0547 237.689 77.4341 236.585 77.5742 235.239L82.0962 235.239L82.0962 230.368L77.6289 230.368L77.6289 228.591L76.6069 228.591L76.6069 230.368L72.0439 230.368ZM81.1016 234.275L77.6289 234.275L77.6289 231.335L81.1016 231.335L81.1016 234.275ZM76.6069 234.275L73.0386 234.275L73.0386 231.335L76.6069 231.335L76.6069 234.275ZM90.6787 231.277L90.6787 232.245L94.7393 232.245L94.7393 239.692C94.7393 240.181 94.4727 240.434 93.9531 240.434C93.3105 240.434 92.6235 240.407 91.8955 240.362L92.1074 241.357L94.3052 241.357C95.2554 241.357 95.7476 240.882 95.7476 239.945L95.7476 232.245L97.2993 232.245L97.2993 231.277L95.7476 231.277L95.7476 228.533L94.7393 228.533L94.7393 231.277L90.6787 231.277ZM85.6646 232.187L84.9946 232.819C85.9756 233.909 86.8711 234.989 87.6538 236.039C86.9258 237.409 85.9038 238.599 84.5879 239.607L85.1758 240.489C86.4644 239.426 87.5 238.223 88.269 236.879C88.7749 237.59 89.2363 238.291 89.6567 238.992L90.3848 238.264C89.8926 237.481 89.3491 236.681 88.7612 235.898C89.4893 234.343 89.8789 232.607 89.9507 230.703L89.9507 229.961L85.2031 229.961L85.2031 230.942L89.0415 230.942C88.9424 232.426 88.6348 233.796 88.1152 235.058C87.3599 234.107 86.5464 233.14 85.6646 232.187ZM91.4341 233.896L90.665 234.456C91.5332 235.533 92.2476 236.555 92.8047 237.522L93.6045 236.961C93.0986 236.066 92.3706 235.044 91.4341 233.896ZM103.042 232.651L103.042 233.629L106.876 233.629L106.876 235.885L104.258 235.885L104.258 241.357L105.253 241.357L105.253 240.66L109.549 240.66L109.549 241.357L110.558 241.357L110.558 235.885L107.898 235.885L107.898 233.629L111.511 233.629L111.511 232.651L107.898 232.651L107.898 230.313C109.074 230.143 110.124 229.893 111.019 229.568L110.53 228.717C108.626 229.36 106.217 229.681 103.318 229.681L103.612 230.59C104.774 230.59 105.868 230.536 106.876 230.437L106.876 232.651L103.042 232.651ZM105.253 239.706L105.253 236.794L109.549 236.794L109.549 239.706L105.253 239.706ZM100.27 228.704L99.5688 229.387C100.577 230.143 101.387 230.871 101.975 231.558L102.662 230.857C102.02 230.129 101.22 229.415 100.27 228.704ZM98.5879 232.846L98.5879 233.813L100.646 233.813L100.646 239.412C100.646 239.621 100.533 239.819 100.338 240L100.731 240.896C101.695 240.267 102.607 239.552 103.445 238.739L103.182 237.676C102.621 238.223 102.088 238.698 101.613 239.091L101.613 232.846L98.5879 232.846ZM119.239 236.975C118.439 237.061 117.517 237.115 116.454 237.173L116.454 236.011L119 236.011L119 235.198L116.454 235.198L116.454 234.049L119.113 234.049L119.113 229.08L112.967 229.08L112.967 234.049L115.555 234.049L115.555 235.198L113.036 235.198L113.036 236.011L115.555 236.011L115.555 237.214C114.717 237.242 113.791 237.269 112.796 237.283L112.909 238.137C115.708 238.042 117.824 237.915 119.239 237.775L119.239 236.975ZM113.23 238.657C113.148 239.607 112.967 240.461 112.66 241.203L113.497 241.47C113.805 240.687 113.989 239.774 114.071 238.752L113.23 238.657ZM115.514 238.752L114.731 238.838C114.84 239.426 114.926 240.239 114.953 241.302L115.808 241.203C115.753 240.167 115.654 239.34 115.514 238.752ZM118.621 238.476L117.91 238.67C118.204 239.398 118.453 240.14 118.651 240.909L119.321 240.66C119.308 240.673 119.294 240.701 119.28 240.728L119.923 241.442C121.017 239.819 121.786 237.816 122.233 235.464C122.681 237.857 123.536 239.846 124.783 241.429L125.467 240.673C123.997 238.951 123.047 236.5 122.613 233.321L125.019 233.321L125.019 232.357L122.555 232.357C122.568 230.901 122.585 229.64 122.585 228.604L121.618 228.604C121.618 229.473 121.604 230.717 121.577 232.357L119.769 232.357L119.769 233.321L121.533 233.321C121.338 236.052 120.624 238.476 119.379 240.574C119.195 239.932 118.945 239.231 118.621 238.476ZM117.069 238.599L116.341 238.838C116.563 239.566 116.761 240.321 116.915 241.107L117.725 240.896C117.53 240.027 117.318 239.272 117.069 238.599ZM123.761 229.066L123.074 229.486C123.662 230.269 124.124 230.997 124.458 231.643L125.159 231.137C124.838 230.549 124.376 229.849 123.761 229.066ZM118.299 233.267L116.382 233.267L116.382 229.866L118.299 229.866L118.299 233.267ZM115.654 233.267L113.777 233.267L113.777 229.866L115.654 229.866L115.654 233.267ZM117.264 230.59C117.182 231.264 117.024 231.91 116.802 232.511L117.335 232.692C117.558 232.046 117.711 231.39 117.797 230.717L117.264 230.59ZM114.704 230.648L114.17 230.816C114.393 231.417 114.591 232.046 114.745 232.692L115.261 232.552C115.093 231.838 114.912 231.209 114.704 230.648ZM134.777 228.632C134.777 231.349 134.569 233.574 134.176 235.324C133.643 237.409 132.552 239.132 130.929 240.502L131.612 241.33C133.475 239.792 134.665 237.802 135.198 235.393C135.27 235.03 135.338 234.665 135.41 234.275C136.192 237.047 137.327 239.398 138.824 241.302L139.552 240.461C137.717 238.363 136.432 235.505 135.687 231.923C135.772 230.915 135.813 229.808 135.813 228.632L134.777 228.632ZM128.27 228.704L127.569 229.387C128.577 230.143 129.387 230.871 129.975 231.558L130.662 230.857C130.02 230.129 129.22 229.415 128.27 228.704ZM126.629 232.846L126.629 233.813L128.687 233.813L128.687 239.272C128.687 239.498 128.577 239.706 128.365 239.874L128.758 240.769C129.739 240.126 130.662 239.385 131.53 238.558L131.277 237.522C130.703 238.069 130.16 238.544 129.654 238.964L129.654 232.846L126.629 232.846Z" fill="rgb(25,25,25)" fill-rule="nonzero" />
		</g>
		<g id="历史对话列表" customFrame="url(#clipPath_103)">
			<rect id="历史对话列表" width="332.000000" height="40.000000" x="44.000000" y="167.000000" rx="12.000000" fill="rgb(255,255,255)" />
			<path id="" d="M69.019 181.247L57.791 181.247L57.791 186.371C57.75 189.061 57.3296 191.173 56.5332 192.687L57.3159 193.388C58.2695 191.621 58.7583 189.283 58.813 186.371L58.813 182.228L69.019 182.228L69.019 181.247ZM68.4312 185.407L64.2612 185.407L64.3022 184.299L64.3022 182.942L63.2803 182.942L63.2803 184.299L63.2393 185.407L59.8623 185.407L59.8623 186.316L63.1538 186.316C63.0137 187.519 62.7471 188.555 62.3574 189.437C61.7251 190.698 60.6211 191.72 59.0386 192.489L59.5991 193.371C61.2227 192.615 62.3984 191.552 63.1265 190.182C63.6597 189.143 64.0083 187.857 64.1758 186.316L67.4229 186.316C67.3818 189.002 67.269 190.67 67.0879 191.313C66.9204 191.959 66.4863 192.28 65.7856 192.308C65.3516 192.294 64.791 192.267 64.1074 192.239L64.3706 193.189C65.0166 193.217 65.5771 193.23 66.0249 193.23C66.8931 193.23 67.5083 192.854 67.8706 192.126C68.2227 191.385 68.4038 189.143 68.4312 185.407ZM72.0439 182.368L72.0439 187.239L76.5386 187.239C76.4121 188.387 76.0771 189.313 75.5166 190.024C74.6211 189.454 73.8213 188.767 73.0933 187.953L72.2832 188.527C73.0386 189.368 73.8794 190.096 74.8022 190.725C73.835 191.48 72.5054 192.085 70.7964 192.52L71.3706 193.415C73.2334 192.937 74.6895 192.239 75.7251 191.313C77.8135 192.52 80.2607 193.189 83.0771 193.343L83.3403 192.349C80.6812 192.226 78.3706 191.621 76.4121 190.558C77.0547 189.689 77.4341 188.585 77.5742 187.239L82.0962 187.239L82.0962 182.368L77.6289 182.368L77.6289 180.591L76.6069 180.591L76.6069 182.368L72.0439 182.368ZM81.1016 186.275L77.6289 186.275L77.6289 183.335L81.1016 183.335L81.1016 186.275ZM76.6069 186.275L73.0386 186.275L73.0386 183.335L76.6069 183.335L76.6069 186.275ZM90.6787 183.277L90.6787 184.245L94.7393 184.245L94.7393 191.692C94.7393 192.181 94.4727 192.434 93.9531 192.434C93.3105 192.434 92.6235 192.407 91.8955 192.362L92.1074 193.357L94.3052 193.357C95.2554 193.357 95.7476 192.882 95.7476 191.945L95.7476 184.245L97.2993 184.245L97.2993 183.277L95.7476 183.277L95.7476 180.533L94.7393 180.533L94.7393 183.277L90.6787 183.277ZM85.6646 184.187L84.9946 184.819C85.9756 185.909 86.8711 186.989 87.6538 188.039C86.9258 189.409 85.9038 190.599 84.5879 191.607L85.1758 192.489C86.4644 191.426 87.5 190.223 88.269 188.879C88.7749 189.59 89.2363 190.291 89.6567 190.992L90.3848 190.264C89.8926 189.481 89.3491 188.681 88.7612 187.898C89.4893 186.343 89.8789 184.607 89.9507 182.703L89.9507 181.961L85.2031 181.961L85.2031 182.942L89.0415 182.942C88.9424 184.426 88.6348 185.796 88.1152 187.058C87.3599 186.107 86.5464 185.14 85.6646 184.187ZM91.4341 185.896L90.665 186.456C91.5332 187.533 92.2476 188.555 92.8047 189.522L93.6045 188.961C93.0986 188.066 92.3706 187.044 91.4341 185.896ZM103.042 184.651L103.042 185.629L106.876 185.629L106.876 187.885L104.258 187.885L104.258 193.357L105.253 193.357L105.253 192.66L109.549 192.66L109.549 193.357L110.558 193.357L110.558 187.885L107.898 187.885L107.898 185.629L111.511 185.629L111.511 184.651L107.898 184.651L107.898 182.313C109.074 182.143 110.124 181.893 111.019 181.568L110.53 180.717C108.626 181.36 106.217 181.681 103.318 181.681L103.612 182.59C104.774 182.59 105.868 182.536 106.876 182.437L106.876 184.651L103.042 184.651ZM105.253 191.706L105.253 188.794L109.549 188.794L109.549 191.706L105.253 191.706ZM100.27 180.704L99.5688 181.387C100.577 182.143 101.387 182.871 101.975 183.558L102.662 182.857C102.02 182.129 101.22 181.415 100.27 180.704ZM98.5879 184.846L98.5879 185.813L100.646 185.813L100.646 191.412C100.646 191.621 100.533 191.819 100.338 192L100.731 192.896C101.695 192.267 102.607 191.552 103.445 190.739L103.182 189.676C102.621 190.223 102.088 190.698 101.613 191.091L101.613 184.846L98.5879 184.846ZM119.239 188.975C118.439 189.061 117.517 189.115 116.454 189.173L116.454 188.011L119 188.011L119 187.198L116.454 187.198L116.454 186.049L119.113 186.049L119.113 181.08L112.967 181.08L112.967 186.049L115.555 186.049L115.555 187.198L113.036 187.198L113.036 188.011L115.555 188.011L115.555 189.214C114.717 189.242 113.791 189.269 112.796 189.283L112.909 190.137C115.708 190.042 117.824 189.915 119.239 189.775L119.239 188.975ZM113.23 190.657C113.148 191.607 112.967 192.461 112.66 193.203L113.497 193.47C113.805 192.687 113.989 191.774 114.071 190.752L113.23 190.657ZM115.514 190.752L114.731 190.838C114.84 191.426 114.926 192.239 114.953 193.302L115.808 193.203C115.753 192.167 115.654 191.34 115.514 190.752ZM118.621 190.476L117.91 190.67C118.204 191.398 118.453 192.14 118.651 192.909L119.321 192.66C119.308 192.673 119.294 192.701 119.28 192.728L119.923 193.442C121.017 191.819 121.786 189.816 122.233 187.464C122.681 189.857 123.536 191.846 124.783 193.429L125.467 192.673C123.997 190.951 123.047 188.5 122.613 185.321L125.019 185.321L125.019 184.357L122.555 184.357C122.568 182.901 122.585 181.64 122.585 180.604L121.618 180.604C121.618 181.473 121.604 182.717 121.577 184.357L119.769 184.357L119.769 185.321L121.533 185.321C121.338 188.052 120.624 190.476 119.379 192.574C119.195 191.932 118.945 191.231 118.621 190.476ZM117.069 190.599L116.341 190.838C116.563 191.566 116.761 192.321 116.915 193.107L117.725 192.896C117.53 192.027 117.318 191.272 117.069 190.599ZM123.761 181.066L123.074 181.486C123.662 182.269 124.124 182.997 124.458 183.643L125.159 183.137C124.838 182.549 124.376 181.849 123.761 181.066ZM118.299 185.267L116.382 185.267L116.382 181.866L118.299 181.866L118.299 185.267ZM115.654 185.267L113.777 185.267L113.777 181.866L115.654 181.866L115.654 185.267ZM117.264 182.59C117.182 183.264 117.024 183.91 116.802 184.511L117.335 184.692C117.558 184.046 117.711 183.39 117.797 182.717L117.264 182.59ZM114.704 182.648L114.17 182.816C114.393 183.417 114.591 184.046 114.745 184.692L115.261 184.552C115.093 183.838 114.912 183.209 114.704 182.648ZM134.777 180.632C134.777 183.349 134.569 185.574 134.176 187.324C133.643 189.409 132.552 191.132 130.929 192.502L131.612 193.33C133.475 191.792 134.665 189.802 135.198 187.393C135.27 187.03 135.338 186.665 135.41 186.275C136.192 189.047 137.327 191.398 138.824 193.302L139.552 192.461C137.717 190.363 136.432 187.505 135.687 183.923C135.772 182.915 135.813 181.808 135.813 180.632L134.777 180.632ZM128.27 180.704L127.569 181.387C128.577 182.143 129.387 182.871 129.975 183.558L130.662 182.857C130.02 182.129 129.22 181.415 128.27 180.704ZM126.629 184.846L126.629 185.813L128.687 185.813L128.687 191.272C128.687 191.498 128.577 191.706 128.365 191.874L128.758 192.769C129.739 192.126 130.662 191.385 131.53 190.558L131.277 189.522C130.703 190.069 130.16 190.544 129.654 190.964L129.654 184.846L126.629 184.846Z" fill="rgb(25,25,25)" fill-rule="nonzero" />
		</g>
		<g id="历史对话列表" customFrame="url(#clipPath_104)">
			<rect id="历史对话列表" width="332.000000" height="40.000000" x="44.000000" y="119.000000" rx="12.000000" fill="rgb(255,255,255)" fill-opacity="0" />
			<path id="" d="M69.019 133.247L57.791 133.247L57.791 138.371C57.75 141.061 57.3296 143.173 56.5332 144.687L57.3159 145.388C58.2695 143.621 58.7583 141.283 58.813 138.371L58.813 134.228L69.019 134.228L69.019 133.247ZM68.4312 137.407L64.2612 137.407L64.3022 136.299L64.3022 134.942L63.2803 134.942L63.2803 136.299L63.2393 137.407L59.8623 137.407L59.8623 138.316L63.1538 138.316C63.0137 139.519 62.7471 140.555 62.3574 141.437C61.7251 142.698 60.6211 143.72 59.0386 144.489L59.5991 145.371C61.2227 144.615 62.3984 143.552 63.1265 142.182C63.6597 141.143 64.0083 139.857 64.1758 138.316L67.4229 138.316C67.3818 141.002 67.269 142.67 67.0879 143.313C66.9204 143.959 66.4863 144.28 65.7856 144.308C65.3516 144.294 64.791 144.267 64.1074 144.239L64.3706 145.189C65.0166 145.217 65.5771 145.23 66.0249 145.23C66.8931 145.23 67.5083 144.854 67.8706 144.126C68.2227 143.385 68.4038 141.143 68.4312 137.407ZM72.0439 134.368L72.0439 139.239L76.5386 139.239C76.4121 140.387 76.0771 141.313 75.5166 142.024C74.6211 141.454 73.8213 140.767 73.0933 139.953L72.2832 140.527C73.0386 141.368 73.8794 142.096 74.8022 142.725C73.835 143.48 72.5054 144.085 70.7964 144.52L71.3706 145.415C73.2334 144.937 74.6895 144.239 75.7251 143.313C77.8135 144.52 80.2607 145.189 83.0771 145.343L83.3403 144.349C80.6812 144.226 78.3706 143.621 76.4121 142.558C77.0547 141.689 77.4341 140.585 77.5742 139.239L82.0962 139.239L82.0962 134.368L77.6289 134.368L77.6289 132.591L76.6069 132.591L76.6069 134.368L72.0439 134.368ZM81.1016 138.275L77.6289 138.275L77.6289 135.335L81.1016 135.335L81.1016 138.275ZM76.6069 138.275L73.0386 138.275L73.0386 135.335L76.6069 135.335L76.6069 138.275ZM90.6787 135.277L90.6787 136.245L94.7393 136.245L94.7393 143.692C94.7393 144.181 94.4727 144.434 93.9531 144.434C93.3105 144.434 92.6235 144.407 91.8955 144.362L92.1074 145.357L94.3052 145.357C95.2554 145.357 95.7476 144.882 95.7476 143.945L95.7476 136.245L97.2993 136.245L97.2993 135.277L95.7476 135.277L95.7476 132.533L94.7393 132.533L94.7393 135.277L90.6787 135.277ZM85.6646 136.187L84.9946 136.819C85.9756 137.909 86.8711 138.989 87.6538 140.039C86.9258 141.409 85.9038 142.599 84.5879 143.607L85.1758 144.489C86.4644 143.426 87.5 142.223 88.269 140.879C88.7749 141.59 89.2363 142.291 89.6567 142.992L90.3848 142.264C89.8926 141.481 89.3491 140.681 88.7612 139.898C89.4893 138.343 89.8789 136.607 89.9507 134.703L89.9507 133.961L85.2031 133.961L85.2031 134.942L89.0415 134.942C88.9424 136.426 88.6348 137.796 88.1152 139.058C87.3599 138.107 86.5464 137.14 85.6646 136.187ZM91.4341 137.896L90.665 138.456C91.5332 139.533 92.2476 140.555 92.8047 141.522L93.6045 140.961C93.0986 140.066 92.3706 139.044 91.4341 137.896ZM103.042 136.651L103.042 137.629L106.876 137.629L106.876 139.885L104.258 139.885L104.258 145.357L105.253 145.357L105.253 144.66L109.549 144.66L109.549 145.357L110.558 145.357L110.558 139.885L107.898 139.885L107.898 137.629L111.511 137.629L111.511 136.651L107.898 136.651L107.898 134.313C109.074 134.143 110.124 133.893 111.019 133.568L110.53 132.717C108.626 133.36 106.217 133.681 103.318 133.681L103.612 134.59C104.774 134.59 105.868 134.536 106.876 134.437L106.876 136.651L103.042 136.651ZM105.253 143.706L105.253 140.794L109.549 140.794L109.549 143.706L105.253 143.706ZM100.27 132.704L99.5688 133.387C100.577 134.143 101.387 134.871 101.975 135.558L102.662 134.857C102.02 134.129 101.22 133.415 100.27 132.704ZM98.5879 136.846L98.5879 137.813L100.646 137.813L100.646 143.412C100.646 143.621 100.533 143.819 100.338 144L100.731 144.896C101.695 144.267 102.607 143.552 103.445 142.739L103.182 141.676C102.621 142.223 102.088 142.698 101.613 143.091L101.613 136.846L98.5879 136.846ZM119.239 140.975C118.439 141.061 117.517 141.115 116.454 141.173L116.454 140.011L119 140.011L119 139.198L116.454 139.198L116.454 138.049L119.113 138.049L119.113 133.08L112.967 133.08L112.967 138.049L115.555 138.049L115.555 139.198L113.036 139.198L113.036 140.011L115.555 140.011L115.555 141.214C114.717 141.242 113.791 141.269 112.796 141.283L112.909 142.137C115.708 142.042 117.824 141.915 119.239 141.775L119.239 140.975ZM113.23 142.657C113.148 143.607 112.967 144.461 112.66 145.203L113.497 145.47C113.805 144.687 113.989 143.774 114.071 142.752L113.23 142.657ZM115.514 142.752L114.731 142.838C114.84 143.426 114.926 144.239 114.953 145.302L115.808 145.203C115.753 144.167 115.654 143.34 115.514 142.752ZM118.621 142.476L117.91 142.67C118.204 143.398 118.453 144.14 118.651 144.909L119.321 144.66C119.308 144.673 119.294 144.701 119.28 144.728L119.923 145.442C121.017 143.819 121.786 141.816 122.233 139.464C122.681 141.857 123.536 143.846 124.783 145.429L125.467 144.673C123.997 142.951 123.047 140.5 122.613 137.321L125.019 137.321L125.019 136.357L122.555 136.357C122.568 134.901 122.585 133.64 122.585 132.604L121.618 132.604C121.618 133.473 121.604 134.717 121.577 136.357L119.769 136.357L119.769 137.321L121.533 137.321C121.338 140.052 120.624 142.476 119.379 144.574C119.195 143.932 118.945 143.231 118.621 142.476ZM117.069 142.599L116.341 142.838C116.563 143.566 116.761 144.321 116.915 145.107L117.725 144.896C117.53 144.027 117.318 143.272 117.069 142.599ZM123.761 133.066L123.074 133.486C123.662 134.269 124.124 134.997 124.458 135.643L125.159 135.137C124.838 134.549 124.376 133.849 123.761 133.066ZM118.299 137.267L116.382 137.267L116.382 133.866L118.299 133.866L118.299 137.267ZM115.654 137.267L113.777 137.267L113.777 133.866L115.654 133.866L115.654 137.267ZM117.264 134.59C117.182 135.264 117.024 135.91 116.802 136.511L117.335 136.692C117.558 136.046 117.711 135.39 117.797 134.717L117.264 134.59ZM114.704 134.648L114.17 134.816C114.393 135.417 114.591 136.046 114.745 136.692L115.261 136.552C115.093 135.838 114.912 135.209 114.704 134.648ZM134.777 132.632C134.777 135.349 134.569 137.574 134.176 139.324C133.643 141.409 132.552 143.132 130.929 144.502L131.612 145.33C133.475 143.792 134.665 141.802 135.198 139.393C135.27 139.03 135.338 138.665 135.41 138.275C136.192 141.047 137.327 143.398 138.824 145.302L139.552 144.461C137.717 142.363 136.432 139.505 135.687 135.923C135.772 134.915 135.813 133.808 135.813 132.632L134.777 132.632ZM128.27 132.704L127.569 133.387C128.577 134.143 129.387 134.871 129.975 135.558L130.662 134.857C130.02 134.129 129.22 133.415 128.27 132.704ZM126.629 136.846L126.629 137.813L128.687 137.813L128.687 143.272C128.687 143.498 128.577 143.706 128.365 143.874L128.758 144.769C129.739 144.126 130.662 143.385 131.53 142.558L131.277 141.522C130.703 142.069 130.16 142.544 129.654 142.964L129.654 136.846L126.629 136.846Z" fill="rgb(25,25,25)" fill-rule="nonzero" />
		</g>
		<g id="综合搜索" customFrame="url(#clipPath_105)">
			<rect id="综合搜索" width="332.000000" height="32.000000" x="44.000000" y="79.000000" rx="16.000000" fill="rgb(255,255,255)" />
			<g id="原子组件/图标组合" opacity="0" customFrame="url(#clipPath_106)">
				<rect id="原子组件/图标组合" width="16.000000" height="16.000000" x="376.000000" y="87.000000" />
				<g id="操作/帮助" customFrame="url(#clipPath_107)">
					<rect id="操作/帮助" width="16.000000" height="16.000000" x="376.000000" y="87.000000" />
					<path id="矢量 33" d="M377 95C377 91.134 380.134 88 384 88C387.866 88 391 91.134 391 95C391 98.866 387.866 102 384 102C380.134 102 377 98.866 377 95ZM378 95C378 91.6863 380.686 89 384 89C387.314 89 390 91.6863 390 95C390 98.3137 387.314 101 384 101C380.686 101 378 98.3137 378 95ZM383.478 96.6642L383.478 95.4399C383.478 95.2732 383.52 95.1482 383.603 95.0649C383.687 94.9816 383.812 94.9399 383.978 94.9399C384.076 94.9399 384.171 94.929 384.263 94.9073C384.329 94.8917 384.394 94.8705 384.457 94.8439C384.527 94.8146 384.593 94.7796 384.655 94.7389C384.724 94.6936 384.788 94.6412 384.848 94.5817C384.911 94.5186 384.967 94.4503 385.014 94.3767C385.052 94.319 385.084 94.258 385.111 94.1938C385.139 94.1288 385.16 94.0625 385.176 93.9948C385.197 93.9055 385.207 93.8139 385.207 93.7199C385.207 93.626 385.197 93.5344 385.176 93.4451C385.16 93.3774 385.139 93.311 385.111 93.246C385.084 93.1819 385.052 93.1209 385.014 93.0632C384.967 92.9896 384.911 92.9213 384.848 92.8582C384.788 92.7987 384.724 92.7462 384.655 92.7009C384.593 92.6602 384.527 92.6252 384.457 92.596C384.394 92.5693 384.329 92.5482 384.263 92.5326C384.171 92.5109 384.076 92.5 383.978 92.5C383.881 92.5 383.786 92.5109 383.694 92.5326C383.628 92.5482 383.563 92.5693 383.5 92.596C383.43 92.6253 383.364 92.6603 383.302 92.701C383.233 92.7463 383.169 92.7987 383.109 92.8582C383.045 92.9213 382.99 92.9896 382.943 93.0632C382.905 93.1209 382.873 93.1819 382.846 93.246C382.818 93.311 382.797 93.3774 382.781 93.4451C382.76 93.5344 382.75 93.6259 382.75 93.7199C382.75 93.9999 382.53 94.2199 382.25 94.2199C381.97 94.2199 381.75 93.9999 381.75 93.7199C381.75 93.558 381.767 93.3999 381.801 93.2454C381.83 93.1125 381.871 92.9823 381.926 92.8549C381.978 92.7308 382.041 92.6133 382.114 92.5026C382.197 92.3762 382.294 92.2584 382.404 92.1494C382.509 92.0441 382.623 91.951 382.745 91.8702C382.86 91.7941 382.982 91.7288 383.112 91.6743C383.237 91.6215 383.365 91.5807 383.496 91.5519C383.653 91.5173 383.814 91.5 383.978 91.5C384.143 91.5 384.304 91.5173 384.461 91.5519C384.592 91.5807 384.72 91.6215 384.845 91.6743C384.975 91.7288 385.097 91.7941 385.212 91.8702C385.334 91.951 385.448 92.0441 385.553 92.1494C385.663 92.2583 385.76 92.3762 385.843 92.5026C385.916 92.6133 385.979 92.7308 386.031 92.8549C386.086 92.9823 386.127 93.1125 386.156 93.2455C386.19 93.4 386.207 93.5581 386.207 93.7199C386.207 93.8817 386.19 94.04 386.156 94.1945C386.127 94.3274 386.086 94.4576 386.031 94.585C385.979 94.7091 385.916 94.8265 385.843 94.9373C385.759 95.0637 385.663 95.1815 385.553 95.2905C385.448 95.3958 385.334 95.4888 385.212 95.5696C385.097 95.6458 384.975 95.7111 384.845 95.7656C384.725 95.816 384.603 95.8555 384.478 95.884L384.478 96.6642C384.478 96.9442 384.258 97.1642 383.978 97.1642C383.698 97.1642 383.478 96.9442 383.478 96.6642ZM383.375 98.1567C383.375 97.8476 383.627 97.597 383.938 97.597C384.248 97.597 384.5 97.8476 384.5 98.1567C384.5 98.4658 384.248 98.7164 383.938 98.7164C383.627 98.7164 383.375 98.4658 383.375 98.1567Z" fill="rgb(128,128,128)" fill-rule="evenodd" />
				</g>
			</g>
			<path id="" d="M82.3403 92.4805L83.8682 92.4805L83.8682 91.6431L82.3403 91.6431L82.3403 90.2964C83.0137 90.0469 83.6016 89.7939 84.0767 89.541L83.5024 88.7993C82.8462 89.1924 82.1455 89.4863 81.4175 89.6812L81.4175 94.7363L84.6235 94.7363L84.6235 95.9668L81.3354 95.9668L81.3354 96.8794L81.9233 96.8794C82.4531 97.8569 83.2085 98.7114 84.2168 99.4258C83.1675 99.8735 81.9097 100.239 80.4536 100.52L80.9561 101.415C82.5933 101.049 83.9946 100.574 85.1704 100.014C86.2471 100.602 87.5493 101.063 89.0771 101.388L89.4395 100.448C88.209 100.195 87.1289 99.8599 86.2061 99.4395C87.3545 98.7114 88.1953 97.8433 88.6978 96.8213L88.6978 95.9668L85.5635 95.9668L85.5635 94.7363L88.7388 94.7363L88.7388 89.2471L86.2915 89.2471L86.2915 90.1152L87.8296 90.1152L87.8296 91.6431L86.3599 91.6431L86.3599 92.4805L87.8296 92.4805L87.8296 93.8682L85.5635 93.8682L85.5635 88.6182L84.6235 88.6182L84.6235 93.8682L82.3403 93.8682L82.3403 92.4805ZM82.959 96.8794L87.6074 96.8794C87.0742 97.6621 86.2744 98.3491 85.2251 98.937C84.2612 98.3628 83.5024 97.6758 82.959 96.8794ZM78.3105 101.275C79.0659 101.275 79.459 100.868 79.459 100.068L79.459 96.0112C79.9341 95.7856 80.4092 95.5635 80.8706 95.3242L80.8706 94.3433C80.4092 94.5962 79.9341 94.8354 79.459 95.0439L79.459 92.2173L80.7612 92.2173L80.7612 91.25L79.459 91.25L79.459 88.6318L78.478 88.6318L78.478 91.25L76.9229 91.25L76.9229 92.2173L78.478 92.2173L78.478 95.437C77.8901 95.6592 77.2886 95.8403 76.6733 96.0112L76.8955 96.9614C77.4287 96.7939 77.9448 96.6128 78.478 96.4146L78.478 99.8188C78.478 100.195 78.2969 100.393 77.9585 100.393C77.5962 100.393 77.2031 100.362 76.7827 100.321L76.9946 101.275L78.3105 101.275ZM91.7637 89.6675L91.7637 90.5903L96.4805 90.5903L96.4805 91.8105L91.1895 91.8105L91.1895 94.3569L92.1704 94.3569L92.1704 92.6924L96.3403 92.6924C95.5303 93.3931 94.6621 94.0083 93.7529 94.5244C93.541 94.6372 93.3325 94.7227 93.1206 94.7637L93.3188 95.5327C94.5356 95.5054 95.6123 95.4644 96.5659 95.437C95.3354 96.1377 94.1597 96.6401 93.0112 96.9614C92.731 96.9614 92.437 96.9478 92.1431 96.9341L92.3379 97.8433C93.6265 97.8159 95.0415 97.7612 96.5796 97.6895L96.5796 100.085C96.5796 100.362 96.4121 100.52 96.1045 100.52C95.7388 100.52 95.3491 100.489 94.9561 100.448L95.1646 101.388L96.4395 101.388C97.1948 101.388 97.5879 101.022 97.5879 100.321L97.5879 97.6484C98.5962 97.5903 99.6592 97.522 100.794 97.4536C101.074 97.7886 101.327 98.1235 101.549 98.4585L102.305 97.915C101.761 97.1597 100.975 96.2915 99.9531 95.2969L99.2251 95.7583C99.5635 96.0933 99.8848 96.4146 100.192 96.7529C98.3706 96.8794 96.5659 96.9751 94.7476 97.0332C96.6514 96.3599 98.415 95.4233 100.066 94.1895L99.2524 93.6426C98.75 94.0083 98.2476 94.3569 97.7554 94.6953C96.9727 94.75 95.9233 94.7773 94.6348 94.8047C95.5439 94.3159 96.4121 93.7417 97.2529 93.0684L96.4805 92.6924L101.83 92.6924L101.83 94.3706L102.811 94.3706L102.811 91.8105L97.5195 91.8105L97.5195 90.5903L102.236 90.5903L102.236 89.6675L97.5195 89.6675L97.5195 88.5635L96.4805 88.5635L96.4805 89.6675L91.7637 89.6675ZM99.0713 98.3901L98.5688 99.1318C99.9121 99.6206 101.228 100.294 102.517 101.135L103.033 100.321C101.843 99.5659 100.527 98.9233 99.0713 98.3901ZM94.6621 98.3628C93.6675 99.1182 92.4097 99.7334 90.8818 100.195L91.3022 101.09C92.8848 100.547 94.2007 99.8599 95.25 99.019L94.6621 98.3628ZM110.679 91.2773L110.679 92.2446L114.739 92.2446L114.739 99.6924C114.739 100.181 114.473 100.434 113.953 100.434C113.311 100.434 112.624 100.407 111.896 100.362L112.107 101.357L114.305 101.357C115.255 101.357 115.748 100.882 115.748 99.9453L115.748 92.2446L117.299 92.2446L117.299 91.2773L115.748 91.2773L115.748 88.5327L114.739 88.5327L114.739 91.2773L110.679 91.2773ZM105.665 92.1865L104.995 92.8188C105.976 93.9092 106.871 94.9893 107.654 96.0386C106.926 97.4092 105.904 98.5986 104.588 99.6069L105.176 100.489C106.464 99.4258 107.5 98.2227 108.269 96.8794C108.775 97.5903 109.236 98.291 109.657 98.9917L110.385 98.2637C109.893 97.481 109.349 96.6812 108.761 95.8984C109.489 94.3433 109.879 92.6069 109.951 90.7031L109.951 89.9614L105.203 89.9614L105.203 90.9424L109.042 90.9424C108.942 92.4258 108.635 93.7964 108.115 95.0576C107.36 94.1074 106.546 93.1401 105.665 92.1865ZM111.434 93.8955L110.665 94.4561C111.533 95.5327 112.248 96.5547 112.805 97.522L113.604 96.9614C113.099 96.0659 112.371 95.0439 111.434 93.8955ZM123.042 92.6514L123.042 93.6289L126.876 93.6289L126.876 95.8848L124.258 95.8848L124.258 101.357L125.253 101.357L125.253 100.66L129.549 100.66L129.549 101.357L130.558 101.357L130.558 95.8848L127.898 95.8848L127.898 93.6289L131.511 93.6289L131.511 92.6514L127.898 92.6514L127.898 90.3135C129.074 90.1426 130.124 89.8931 131.019 89.5684L130.53 88.7173C128.626 89.3599 126.217 89.6812 123.318 89.6812L123.612 90.5903C124.774 90.5903 125.868 90.5356 126.876 90.4365L126.876 92.6514L123.042 92.6514ZM125.253 99.7061L125.253 96.7939L129.549 96.7939L129.549 99.7061L125.253 99.7061ZM120.27 88.7036L119.569 89.3872C120.577 90.1426 121.387 90.8706 121.975 91.5576L122.662 90.8569C122.02 90.1289 121.22 89.4146 120.27 88.7036ZM118.588 92.8462L118.588 93.8135L120.646 93.8135L120.646 99.4121C120.646 99.6206 120.533 99.8188 120.338 100L120.731 100.896C121.695 100.267 122.607 99.5522 123.445 98.7388L123.182 97.6758C122.621 98.2227 122.088 98.6978 121.613 99.0908L121.613 92.8462L118.588 92.8462ZM136.97 100.533L143.228 100.533L143.228 101.357L144.25 101.357L144.25 95.4507L138.412 95.4507C141.044 94.2305 142.849 92.665 143.857 90.7476L143.857 89.8486L138.398 89.8486C138.679 89.4727 138.932 89.0796 139.154 88.6592L138.046 88.5327C137.209 90.0195 135.599 91.2773 133.203 92.2993L133.876 93.1675C135.36 92.4668 136.563 91.6841 137.517 90.8022L142.695 90.8022C142.039 91.9507 141.003 92.9453 139.574 93.7964C138.973 93.2803 138.132 92.6924 137.069 92.0327L136.201 92.5796C137.264 93.1812 138.104 93.7417 138.72 94.2612C137.11 95.0713 135.093 95.7173 132.673 96.2197L133.203 97.187C134.184 96.9478 135.093 96.6948 135.961 96.4146L135.961 101.357L136.97 101.357L136.97 100.533ZM143.228 99.5522L136.97 99.5522L136.97 96.3872L143.228 96.3872L143.228 99.5522ZM146.813 92.3984L146.813 93.3623L148.745 93.3623C148.297 94.9585 147.542 96.3735 146.475 97.6211L146.909 98.7388C147.723 97.6211 148.379 96.3735 148.857 95.0029L148.857 101.357L149.821 101.357L149.821 95.0303C150.242 95.519 150.761 96.1787 151.349 97.0195L151.91 96.1787C151.209 95.4233 150.522 94.75 149.821 94.1348L149.821 93.3623L151.544 93.3623L151.544 92.3984L149.821 92.3984L149.821 90.2417C150.536 90.1016 151.209 89.9341 151.824 89.7666L151.476 88.813C150.129 89.2334 148.604 89.5137 146.868 89.6675L147.063 90.6211C147.682 90.563 148.27 90.481 148.857 90.3955L148.857 92.3984L146.813 92.3984ZM154.764 101.33C155.563 101.33 155.967 100.909 155.967 100.068L155.967 92.665L154.931 92.665L154.931 99.8188C154.931 100.226 154.75 100.434 154.415 100.434C154.036 100.434 153.629 100.407 153.208 100.362L153.42 101.33L154.764 101.33ZM153 94.6816C152.651 96.3052 152.104 97.8022 151.349 99.1455L152.217 99.6924C152.959 98.3354 153.533 96.7256 153.937 94.8628L153 94.6816ZM157.789 94.5825L156.879 94.8765C157.467 96.3188 158.011 97.9697 158.503 99.8325L159.426 99.4258C158.964 97.7031 158.417 96.0933 157.789 94.5825ZM153.954 91.4756L157.956 91.4756C157.789 92.2856 157.577 93.0137 157.327 93.6733L158.305 93.9673C158.585 93.041 158.797 92.1045 158.964 91.1509L158.964 90.4946L154.33 90.4946C154.524 89.9067 154.695 89.2915 154.818 88.6455L153.827 88.519C153.489 90.3135 152.833 91.8242 151.879 93.0547L152.498 93.8545C153.068 93.1538 153.561 92.3574 153.954 91.4756Z" fill="rgb(128,128,128)" fill-rule="nonzero" />
			<g id="框类/搜索" customFrame="url(#clipPath_108)">
				<rect id="框类/搜索" width="16.000000" height="16.000000" x="56.000000" y="87.000000" />
				<path id="矢量 8" d="M57.7266 94.1758C57.7266 91.1382 60.189 88.6758 63.2266 88.6758C66.2641 88.6758 68.7266 91.1382 68.7266 94.1758C68.7266 95.5069 68.2537 96.7275 67.4668 97.6789L70.2009 100.378C70.3974 100.572 70.3995 100.888 70.2055 101.085C70.033 101.259 69.7637 101.28 69.568 101.147L66.7625 98.3887C65.8064 99.192 64.573 99.6758 63.2266 99.6758C60.189 99.6758 57.7266 97.2133 57.7266 94.1758ZM67.7266 94.1758C67.7266 91.6905 65.7118 89.6758 63.2266 89.6758C60.7413 89.6758 58.7266 91.6905 58.7266 94.1758C58.7266 96.6611 60.7413 98.6758 63.2266 98.6758C65.7118 98.6758 67.7266 96.6611 67.7266 94.1758Z" fill="rgb(128,128,128)" fill-rule="evenodd" />
			</g>
			<rect id="综合搜索" width="331.000000" height="31.000000" x="44.500000" y="79.500000" rx="15.500000" stroke="rgb(194,194,194)" stroke-width="1.000000" />
		</g>
		<path id="" d="M58.9297 49.5664L45.8711 49.5664L45.8711 55.5664C45.8398 58.5586 45.3906 60.8945 44.5586 62.5742L45.7422 63.6328C46.8008 61.6172 47.3594 58.9297 47.4258 55.5664L47.4258 51.0547L58.9297 51.0547L58.9297 49.5664ZM58.3828 54.3203L53.6172 54.3203L53.6641 53.2812L53.6641 51.6953L52.1445 51.6953L52.1445 53.2812L52.0977 54.3203L48.3672 54.3203L48.3672 55.6797L51.9688 55.6797C51.793 56.9297 51.5039 58 51.0898 58.9297C50.4492 60.2734 49.2148 61.3906 47.4258 62.2891L48.2734 63.6172C50.1289 62.7852 51.457 61.5664 52.2891 60C52.8945 58.832 53.2969 57.3906 53.4883 55.6797L56.8477 55.6797C56.8164 58.5586 56.6875 60.3359 56.4961 61.0078C56.3203 61.6953 55.8555 62.0469 55.1211 62.0781C54.6094 62.0469 53.9688 62.0156 53.1836 61.9844L53.582 63.4062C54.3203 63.4414 54.9609 63.4727 55.4727 63.4727C56.5273 63.4727 57.2812 63.0391 57.7109 62.1758C58.1289 61.3125 58.3516 58.6875 58.3828 54.3203ZM62.2383 50.8477L62.2383 56.7695L67.2812 56.7695C67.1367 57.8711 66.8008 58.7695 66.2891 59.4727C65.3281 58.8477 64.4648 58.1289 63.6797 57.2969L62.4336 58.1602C63.2656 59.0391 64.1758 59.8242 65.1836 60.5273C64.1289 61.2969 62.6875 61.8867 60.8945 62.3359L61.7773 63.6953C63.8555 63.1523 65.4727 62.3984 66.625 61.4062C68.9766 62.6875 71.7266 63.4258 74.8789 63.5859L75.2656 62.0625C72.3516 61.9375 69.8242 61.3438 67.6641 60.2578C68.3047 59.3125 68.6875 58.1445 68.832 56.7695L73.9219 56.7695L73.9219 50.8477L68.8945 50.8477L68.8945 48.9102L67.375 48.9102L67.375 50.8477L62.2383 50.8477ZM72.4141 55.3125L68.8945 55.3125L68.8945 52.3047L72.4141 52.3047L72.4141 55.3125ZM67.375 55.3125L63.7422 55.3125L63.7422 52.3047L67.375 52.3047L67.375 55.3125ZM83.6172 51.8711L83.6172 53.3438L88.0977 53.3438L88.0977 61.375C88.0977 61.9219 87.793 62.207 87.1992 62.207C86.4961 62.207 85.7422 62.1758 84.9766 62.1133L85.2969 63.6016L87.7266 63.6016C88.9922 63.6016 89.6328 62.9766 89.6328 61.7617L89.6328 53.3438L91.2812 53.3438L91.2812 51.8711L89.6328 51.8711L89.6328 48.8477L88.0977 48.8477L88.0977 51.8711L83.6172 51.8711ZM78.0781 53.0078L77.0547 53.9688C78.1445 55.1836 79.1367 56.3828 80 57.5352C79.1836 58.9766 78.0625 60.2578 76.625 61.3438L77.4883 62.6719C78.8945 61.4883 80.0469 60.207 80.9102 58.8008C81.4062 59.5195 81.8555 60.2227 82.2578 60.9297L83.375 59.8086C82.8477 58.9922 82.2891 58.1758 81.6797 57.3438C82.4961 55.5664 82.9102 53.6172 82.9453 51.4883L82.9453 50.3672L77.3281 50.3672L77.3281 51.8398L81.5859 51.8398C81.5039 53.3438 81.2148 54.7539 80.7031 56.0625C79.8867 55.0391 79.0078 54.0312 78.0781 53.0078ZM84.6875 54.9609L83.5352 55.8086C84.5117 57.0391 85.2969 58.1758 85.8867 59.2148L87.0898 58.3828C86.5273 57.3906 85.7266 56.2383 84.6875 54.9609ZM97.7109 53.4258L97.7109 54.8945L101.953 54.8945L101.953 57.1211L98.9766 57.1211L98.9766 63.6016L100.48 63.6016L100.48 62.8945L104.992 62.8945L104.992 63.6016L106.496 63.6016L106.496 57.1211L103.488 57.1211L103.488 54.8945L107.488 54.8945L107.488 53.4258L103.488 53.4258L103.488 51.0703C104.785 50.8789 105.938 50.6094 106.961 50.2578L106.223 48.9922C104 49.6797 101.266 50.0312 98.0156 50.0312L98.4648 51.3906C99.6953 51.3906 100.863 51.3438 101.953 51.2461L101.953 53.4258L97.7109 53.4258ZM100.48 61.4727L100.48 58.5117L104.992 58.5117L104.992 61.4727L100.48 61.4727ZM94.7695 49.0078L93.7109 50.0469C94.8477 50.8789 95.7266 51.6797 96.3672 52.4336L97.4062 51.375C96.6875 50.5742 95.8086 49.793 94.7695 49.0078ZM92.6094 53.6484L92.6094 55.1055L94.8477 55.1055L94.8477 60.9922C94.8477 61.3125 94.7031 61.5859 94.4492 61.8086L95.0234 63.168C96.1602 62.4336 97.2305 61.5859 98.2383 60.6406L97.8398 59.0391C97.2969 59.5664 96.7852 60.0312 96.3047 60.4492L96.3047 53.6484L92.6094 53.6484Z" fill="rgb(25,25,25)" fill-rule="nonzero" />
	</g>
</svg>
