<svg viewBox="0 0 430.267 56" xmlns="http://www.w3.org/2000/svg" xmlns:xlink="http://www.w3.org/1999/xlink" width="430.266693" height="56.000000" fill="none" customFrame="#000000">
	<g id="字体">
		<path id="矢量_12" d="M20.0204 0C13.6708 0 8.70983 2.11276 5.13766 6.4729C1.67787 10.5889 0 15.9086 0 22.4993C0 29.09 1.66985 34.3508 5.13766 38.4668C8.60548 42.5829 13.6788 44.8808 20.0204 44.8808C26.362 44.8808 31.2743 42.7681 34.9027 38.5342C38.3624 34.4855 40.0967 29.1574 40.0967 22.5078C40.0967 15.8581 38.3624 10.471 34.9027 6.42234C31.2663 2.12112 26.3058 0 20.0204 0ZM400.568 7.23042L426.651 7.23042C428.648 7.23042 430.267 5.61184 430.267 3.61521C430.267 1.61858 428.648 0 426.651 0L400.568 0C398.572 0 396.953 1.61858 396.953 3.61521C396.953 5.61184 398.572 7.23042 400.568 7.23042ZM142.272 7.82805L168.355 7.82805C170.352 7.82805 171.971 6.20946 171.971 4.21284C171.971 2.21621 170.352 0.597625 168.355 0.597625L142.272 0.597625C140.276 0.597625 138.657 2.21621 138.657 4.21284C138.657 6.20946 140.276 7.82805 142.272 7.82805ZM346.373 0.892229L319.65 0.850143L319.65 44.0222L326.433 44.0222L326.433 6.88531L346.368 6.88531C348.025 6.88531 349.367 5.54277 349.367 3.88665C349.367 2.23219 348.027 0.892229 346.373 0.892229ZM391.061 0.850143L382.809 0.850143L354.256 44.0306L362.508 44.0306L391.061 0.850143ZM286.774 2.83398L301.5 25.3612L301.5 36.6656L285.71 12.466L285.477 12.466L285.477 40.6552C285.477 42.5194 283.966 44.0306 282.102 44.0306C280.238 44.0306 278.726 42.5194 278.726 40.6552L278.726 5.231C278.726 2.81152 280.688 0.850143 283.107 0.850143C284.586 0.850143 285.965 1.59619 286.774 2.83398ZM309.479 44.0306L309.479 44.0309C307.599 44.0309 306.076 42.5069 306.076 40.6272L306.076 8.75394L306.076 4.25371C306.076 2.37397 307.599 0.850143 309.479 0.850143C311.359 0.850143 312.883 2.37398 312.883 4.25372L312.883 40.6272C312.883 42.5069 311.359 44.0306 309.479 44.0306ZM29.8857 34.3508C27.5818 37.1958 24.291 38.6436 20.0204 38.6436C15.7499 38.6436 12.4021 37.1285 10.0982 34.1656C7.79438 31.2028 6.75079 27.3897 6.75079 22.4909C6.75079 17.592 7.85057 13.6612 10.0982 10.7572C12.4663 7.73544 15.7499 6.22036 20.0204 6.22036C24.291 6.22036 27.5818 7.60921 29.8857 10.5132C32.1895 13.4171 33.2895 17.4069 33.2895 22.4909C33.2895 27.5749 32.1333 31.5058 29.8857 34.3508ZM151.782 39.6242L151.782 12.2303L158.541 12.2303L158.541 39.6242C158.541 41.4907 157.028 43.0037 155.161 43.0037C153.295 43.0037 151.782 41.4907 151.782 39.6242ZM410.078 39.0266L410.078 12.2303L416.837 12.2303L416.837 39.0266C416.837 40.8931 415.324 42.4061 413.457 42.4061C411.591 42.4061 410.078 40.8931 410.078 39.0266ZM231.092 36.7497L234.504 28.383L229.839 15.2447C229.31 13.7555 227.901 12.7606 226.321 12.7606L221.804 12.7606L231.092 36.7497ZM236.864 35.0158L236.759 34.7212L233.564 43.1216L233.629 43.2983L231.887 47.507L231.156 49.4345L231.1 49.4177L230.216 51.5562C229.341 53.673 230.897 56 233.187 56C234.529 56 235.73 55.1667 236.2 53.9097L251.57 12.7606L247.092 12.7606C245.493 12.7606 244.072 13.7792 243.557 15.2935L238.758 29.4267L238.774 29.4435L238.606 29.8812L236.864 35.0158ZM104.38 18.459C103.152 16.6409 101.266 15.4457 99.5398 14.6797C97.814 13.9137 95.5422 13.5265 92.7407 13.5265L92.7407 13.5939C90.2145 13.6444 88.1466 14.0259 86.5355 14.7386C84.8016 15.5074 83.3222 16.7981 82.0964 18.6105C80.2927 21.2704 79.3888 24.3736 79.3832 27.92C79.3832 33.4024 81.0954 37.5353 84.5207 40.3186C85.7135 41.2721 87.03 41.9678 88.4701 42.4061C89.8773 42.827 91.6947 43.0374 93.9207 43.0374L101.044 43.0374C102.78 43.0374 104.188 41.6299 104.188 39.8936C104.188 38.1573 102.78 36.7497 101.044 36.7497L94.7716 36.7497C92.4276 36.7497 89.0642 36.3457 88.0206 35.5376C86.9771 34.7296 85.8131 33.1556 85.508 31.3795L93.0859 31.3795C93.0859 31.3795 99.7325 31.2617 100.294 31.2701C103.738 31.3122 106.443 30.6809 106.146 24.6962C106.042 22.3815 105.263 19.7637 104.38 18.459ZM178.417 39.9775C178.417 41.7929 179.888 43.2647 181.704 43.2647C183.519 43.2647 184.991 41.7929 184.991 39.9775L184.991 16.8137C184.991 14.9983 183.519 13.5265 181.704 13.5265C179.888 13.5265 178.417 14.9983 178.417 16.8137L178.417 39.9775ZM118.99 13.5939L119.075 39.5402C119.075 41.4745 117.515 43.0458 115.581 43.0458C113.651 43.0458 112.087 41.4814 112.087 39.5516L112.087 18.2595C112.087 15.6827 114.175 13.5939 116.752 13.5939L118.99 13.5939ZM127.451 19.8815L123.269 19.8815L123.269 13.5939L126.969 13.5939C129.201 13.5939 130.903 13.765 132.075 14.1073C133.276 14.4653 134.344 15.0798 135.278 15.9507C137.236 17.8474 138.218 20.8299 138.224 24.8982L138.224 39.6503C138.224 41.5256 136.703 43.0458 134.828 43.0458C132.953 43.0458 131.432 41.5256 131.432 39.6503L131.432 23.9976C131.432 22.5414 131.127 21.4977 130.509 20.8495C129.891 20.2014 128.872 19.8815 127.451 19.8815ZM195.135 13.5939L198.589 13.5939L198.589 23.2316L198.67 23.2316L198.67 39.5459C198.67 41.4789 197.103 43.0458 195.17 43.0458C193.237 43.0458 191.67 41.4789 191.67 39.5459L191.67 17.0588C191.67 15.1452 193.221 13.5939 195.135 13.5939ZM203.189 13.5939L203.189 19.8815L207.034 19.8815C208.455 19.8815 209.474 20.2014 210.093 20.8495C210.711 21.4977 211.016 22.5414 211.016 23.9976L211.016 39.6502C211.016 41.5256 212.536 43.0458 214.411 43.0458C216.287 43.0458 217.807 41.5256 217.807 39.6502L217.807 24.8982C217.807 20.8243 216.827 17.8418 214.869 15.9507C213.935 15.0798 212.868 14.4653 211.666 14.1073C210.494 13.7594 208.792 13.5882 206.56 13.5939L203.189 13.5939ZM85.508 25.0329C85.7007 23.2316 86.0379 21.868 87.3463 20.8664C88.8314 19.73 91.649 19.8058 93.7441 19.8647L95.5824 19.8647C97.0674 19.9657 98.4722 20.2351 99.1144 20.9253C100.254 22.1458 100.479 23.0549 100.672 25.0666L85.508 25.0329ZM330.96 44.0306L330.96 37.9871L347.276 37.9871C348.945 37.9871 350.298 39.34 350.298 41.0089C350.298 42.6777 348.945 44.0306 347.276 44.0306L330.96 44.0306Z" fill="rgb(25,25,25)" fill-rule="evenodd" />
		<path id="矢量_12" d="M5.63292 6.8892C3.96338 8.87542 2.71498 11.164 1.88774 13.7549C1.06057 16.3455 0.646982 19.2604 0.646982 22.4993C0.646982 25.7361 1.05948 28.6409 1.88448 31.2135C2.7087 33.7837 3.95802 36.0626 5.63245 38.05C7.31988 40.0528 9.36247 41.5776 11.7602 42.6244C14.218 43.6973 16.9714 44.2338 20.0204 44.2338C23.0977 44.2338 25.8325 43.7226 28.2248 42.7003C30.5975 41.6863 32.6597 40.1573 34.4114 38.1132C37.7703 34.1826 39.4498 28.9807 39.4498 22.5078C39.4498 15.9955 37.7701 10.7738 34.4108 6.84265C32.6599 4.77167 30.5893 3.22161 28.1991 2.19245C25.8061 1.16214 23.0799 0.646981 20.0204 0.646981C16.9219 0.646982 14.1799 1.16305 11.7944 2.19518C9.40286 3.22992 7.35077 4.7925 5.63813 6.88292L5.63292 6.8892ZM4.63719 6.06288C8.30204 1.58964 13.4298 -0.646982 20.0204 -0.646982C26.5223 -0.646981 31.647 1.56935 35.3945 6.00202C37.1795 8.09078 38.5189 10.5205 39.4128 13.291C40.3001 16.0408 40.7437 19.1131 40.7437 22.5078C40.7437 29.2991 38.9605 34.7816 35.3939 38.9552C33.5112 41.1521 31.291 42.7971 28.7333 43.8901C26.1786 44.9819 23.2743 45.5278 20.0204 45.5278C16.7913 45.5278 13.8653 44.9553 11.2425 43.8103C8.66006 42.6829 6.46018 41.0407 4.64288 38.8837C2.85873 36.7661 1.52854 34.341 0.65232 31.6086C-0.213881 28.9075 -0.646982 25.871 -0.646982 22.4993C-0.646982 19.126 -0.212961 16.08 0.655082 13.3613C1.53414 10.6081 2.86325 8.17323 4.6424 6.0566L4.63719 6.06288ZM426.651 6.58344C427.054 6.58344 427.439 6.50577 427.807 6.35045C428.162 6.20028 428.476 5.98815 428.75 5.71406C429.024 5.43999 429.237 5.12543 429.387 4.77038C429.542 4.40314 429.62 4.01809 429.62 3.61521C429.62 3.21233 429.542 2.82728 429.387 2.46004C429.237 2.10499 429.024 1.79043 428.75 1.51636C428.476 1.24227 428.162 1.03014 427.807 0.879974C427.439 0.724646 427.054 0.646982 426.651 0.646982L400.568 0.646982C400.166 0.646982 399.78 0.724646 399.413 0.879974C399.058 1.03014 398.744 1.24227 398.47 1.51636C398.195 1.79043 397.983 2.10499 397.833 2.46004C397.678 2.82728 397.6 3.21233 397.6 3.61521C397.6 4.01809 397.678 4.40314 397.833 4.77038C397.983 5.12543 398.195 5.43999 398.47 5.71406C398.744 5.98815 399.058 6.20028 399.413 6.35045C399.78 6.50577 400.166 6.58344 400.568 6.58344L426.651 6.58344ZM426.651 7.8774L400.568 7.8774C399.991 7.8774 399.438 7.76567 398.909 7.54219C398.399 7.32649 397.948 7.02211 397.555 6.62903C397.161 6.23597 396.857 5.78444 396.641 5.27445C396.418 4.74618 396.306 4.1931 396.306 3.61521C396.306 3.03732 396.418 2.48424 396.641 1.95597C396.857 1.44598 397.161 0.994446 397.555 0.601385C397.948 0.208313 398.399 -0.0960724 398.909 -0.311772C399.438 -0.535245 399.991 -0.646982 400.568 -0.646982L426.651 -0.646982C427.229 -0.646982 427.782 -0.535245 428.311 -0.311772C428.821 -0.0960728 429.272 0.208313 429.665 0.601385C430.058 0.994446 430.363 1.44598 430.578 1.95597C430.802 2.48424 430.914 3.03732 430.914 3.61521C430.914 4.1931 430.802 4.74618 430.578 5.27445C430.363 5.78445 430.058 6.23597 429.665 6.62903C429.272 7.02211 428.821 7.32649 428.311 7.54219C427.782 7.76567 427.229 7.8774 426.651 7.8774ZM168.355 7.18106C168.758 7.18106 169.143 7.1034 169.511 6.94807C169.866 6.79791 170.18 6.58578 170.454 6.31169C170.728 6.0376 170.941 5.72304 171.091 5.36801C171.246 5.00077 171.324 4.61572 171.324 4.21283C171.324 3.80995 171.246 3.4249 171.091 3.05766C170.941 2.70263 170.728 2.38807 170.454 2.11398C170.18 1.83989 169.866 1.62777 169.511 1.4776C169.143 1.32227 168.758 1.24461 168.355 1.24461L142.272 1.24461C141.869 1.24461 141.484 1.32227 141.117 1.4776C140.762 1.62776 140.448 1.83989 140.173 2.11398C139.899 2.38807 139.687 2.70263 139.537 3.05766C139.382 3.4249 139.304 3.80995 139.304 4.21284C139.304 4.61572 139.382 5.00077 139.537 5.36801C139.687 5.72304 139.899 6.0376 140.173 6.31169C140.448 6.58578 140.762 6.79791 141.117 6.94807C141.484 7.1034 141.869 7.18106 142.272 7.18106L168.355 7.18106ZM168.355 8.47503L142.272 8.47503C141.695 8.47503 141.141 8.36329 140.613 8.13982C140.103 7.9241 139.652 7.61972 139.258 7.22666C138.865 6.83361 138.561 6.38208 138.345 5.87207C138.122 5.3437 138.01 4.79062 138.01 4.21284C138.01 3.63505 138.122 3.08197 138.345 2.5536C138.561 2.04359 138.865 1.59206 139.258 1.19901C139.652 0.805955 140.103 0.501569 140.613 0.285853C141.141 0.0623797 141.695 -0.0493569 142.272 -0.0493569L168.355 -0.0493569C168.933 -0.0493569 169.486 0.0623798 170.015 0.285853C170.525 0.501569 170.976 0.805955 171.369 1.19901C171.762 1.59206 172.067 2.04359 172.282 2.5536C172.506 3.08197 172.618 3.63505 172.618 4.21283C172.618 4.79062 172.506 5.3437 172.282 5.87207C172.067 6.38208 171.762 6.83361 171.369 7.22666C170.976 7.61972 170.525 7.9241 170.015 8.13982C169.486 8.36329 168.933 8.47503 168.355 8.47503ZM320.297 0.850143L320.297 44.0222L319.65 44.0222L319.65 43.3752L326.433 43.3752L326.433 44.0222L325.786 44.0222L325.786 6.23833L346.368 6.23833C346.688 6.23833 346.993 6.17682 347.284 6.05379C347.565 5.93481 347.814 5.76673 348.031 5.54954C348.248 5.3324 348.417 5.08316 348.535 4.80183C348.659 4.51093 348.72 4.20587 348.72 3.88665C348.72 3.56778 348.659 3.26314 348.536 2.97274C348.417 2.69196 348.249 2.44322 348.033 2.2265C347.816 2.00976 347.567 1.84205 347.287 1.72336C346.996 1.60059 346.691 1.53921 346.373 1.53921L319.649 1.49712L319.65 0.850143L320.297 0.850143ZM319.003 0.202141L346.373 0.245247C346.866 0.245247 347.339 0.340677 347.79 0.531536C348.226 0.71576 348.612 0.975758 348.948 1.31153C349.283 1.64726 349.543 2.03304 349.728 2.46886C349.919 2.92027 350.014 3.39286 350.014 3.88665C350.014 4.38088 349.918 4.85396 349.727 5.3059C349.543 5.74217 349.282 6.12838 348.946 6.46451C348.61 6.80068 348.224 7.06102 347.788 7.24554C347.336 7.43671 346.863 7.5323 346.368 7.5323L326.433 7.5323L326.433 6.88531L327.08 6.88531L327.08 44.6692L319.003 44.6692L319.003 0.850143L319.003 0.202141ZM383.349 1.207L354.795 44.3875L354.256 44.0306L354.256 43.3837L362.508 43.3837L362.508 44.0306L361.968 43.6738L390.521 0.493286L391.061 0.850143L391.061 1.49712L382.809 1.49712L382.809 0.850143L383.349 1.207ZM382.461 0.203161L392.265 0.203161L362.856 44.6776L353.052 44.6776L382.269 0.493286L382.461 0.203161ZM302.147 25.3612L302.147 38.8411L285.168 12.8195L285.71 12.466L285.71 13.1129L285.477 13.1129L285.477 12.466L286.124 12.466L286.124 40.6552C286.124 41.2005 286.019 41.7225 285.808 42.2211C285.604 42.7024 285.317 43.1286 284.946 43.4995C284.575 43.8704 284.149 44.1577 283.668 44.3613C283.169 44.5722 282.647 44.6776 282.102 44.6776C281.557 44.6776 281.035 44.5722 280.536 44.3613C280.055 44.1577 279.629 43.8704 279.258 43.4995C278.887 43.1286 278.599 42.7024 278.396 42.2211C278.185 41.7225 278.079 41.2005 278.079 40.6552L278.079 5.231C278.079 4.54928 278.211 3.89686 278.475 3.27374C278.729 2.67214 279.088 2.13949 279.552 1.67578C280.016 1.21205 280.548 0.852968 281.15 0.598538C281.773 0.334953 282.426 0.20316 283.107 0.20316C283.956 0.203161 284.753 0.405056 285.5 0.808847C286.246 1.21264 286.851 1.76969 287.316 2.47998L302.147 25.1685L302.147 25.3612ZM300.853 25.3612L301.5 25.3612L300.958 25.7152L286.233 3.18797C285.888 2.6605 285.438 2.24682 284.884 1.94693C284.33 1.64706 283.737 1.49712 283.107 1.49712C282.601 1.49712 282.116 1.59484 281.654 1.79028C281.207 1.97918 280.812 2.246 280.467 2.59075C280.122 2.93547 279.855 3.33116 279.667 3.7778C279.471 4.23989 279.373 4.72429 279.373 5.231L279.373 40.6552C279.373 41.0255 279.445 41.3795 279.588 41.717C279.726 42.0434 279.921 42.3326 280.173 42.5845C280.425 42.8365 280.714 43.0315 281.04 43.1695C281.378 43.3123 281.732 43.3837 282.102 43.3837C282.472 43.3837 282.826 43.3123 283.164 43.1695C283.49 43.0315 283.779 42.8365 284.031 42.5845C284.283 42.3326 284.478 42.0434 284.616 41.717C284.759 41.3795 284.83 41.0255 284.83 40.6552L284.83 11.819L286.061 11.819L302.042 36.312L301.5 36.6656L300.853 36.6656L300.853 25.3612ZM305.429 8.75394L305.429 4.25371C305.429 3.70453 305.535 3.17891 305.747 2.67685C305.952 2.19219 306.241 1.76308 306.615 1.38954C306.989 1.01599 307.418 0.72672 307.902 0.521739C308.404 0.309353 308.93 0.203161 309.479 0.203161C310.028 0.203161 310.554 0.309354 311.056 0.521739C311.541 0.726732 311.97 1.016 312.343 1.38954C312.717 1.76304 313.006 2.19215 313.211 2.67686C313.423 3.17896 313.53 3.70458 313.53 4.25372L313.53 40.6272C313.53 41.1763 313.424 41.7019 313.211 42.204C313.006 42.6887 312.717 43.1178 312.343 43.4913C311.97 43.8648 311.541 44.1541 311.056 44.3591C310.554 44.5714 310.028 44.6776 309.479 44.6776L309.479 44.0306L310.126 44.0306L310.126 44.6778L309.479 44.6778C308.93 44.6778 308.405 44.5716 307.902 44.3592C307.418 44.1543 306.989 43.865 306.615 43.4914C306.241 43.1179 305.952 42.6887 305.747 42.2041C305.535 41.702 305.429 41.1763 305.429 40.6272L305.429 8.75394ZM306.723 8.75394L306.723 40.6272C306.723 41.0013 306.795 41.3589 306.939 41.7C307.078 42.0297 307.275 42.3219 307.53 42.5764C307.785 42.831 308.077 43.0281 308.406 43.1675C308.747 43.3118 309.105 43.3839 309.479 43.3839L309.479 44.0309L308.832 44.0309L308.832 43.3837L309.479 43.3837C309.853 43.3837 310.211 43.3115 310.552 43.1673C310.882 43.0279 311.174 42.8309 311.428 42.5763C311.683 42.3218 311.88 42.0296 312.019 41.6999C312.164 41.3589 312.236 41.0013 312.236 40.6272L312.236 4.25372C312.236 3.8796 312.164 3.522 312.019 3.18093C311.88 2.85117 311.683 2.55903 311.428 2.30452C311.174 2.04995 310.882 1.85295 310.552 1.71349C310.211 1.56924 309.853 1.49712 309.479 1.49712C309.105 1.49712 308.747 1.56924 308.406 1.71348C308.077 1.85293 307.785 2.04994 307.53 2.30451C307.275 2.55906 307.078 2.8512 306.939 3.18092C306.795 3.52194 306.723 3.87954 306.723 4.25371L306.723 8.75394ZM20.0204 39.2906C17.7934 39.2906 15.8051 38.8955 14.0555 38.1053C12.295 37.3102 10.8056 36.1294 9.58748 34.5628C8.39383 33.0277 7.51071 31.2503 6.93812 29.2307C6.38191 27.2689 6.10381 25.0223 6.10381 22.4909C6.10381 17.4043 7.26474 13.3611 9.5866 10.3612C12.088 7.16932 15.5659 5.57337 20.0204 5.57337C24.5352 5.57338 27.9925 7.08594 30.3925 10.1111C31.5916 11.6225 32.4855 13.4218 33.0742 15.5089C33.6491 17.5469 33.9365 19.8742 33.9365 22.4909C33.9365 27.675 32.7554 31.762 30.3933 34.7519C29.1695 36.2633 27.6881 37.3984 25.9493 38.1571C24.2175 38.9128 22.2412 39.2906 20.0204 39.2906ZM20.0204 37.9966C24.074 37.9966 27.1932 36.6477 29.378 33.9497C31.5544 31.1949 32.6425 27.3753 32.6426 22.4909C32.6426 19.9936 32.3713 17.7833 31.8289 15.8601C31.2871 13.9395 30.4705 12.2912 29.3788 10.9153C28.3008 9.55642 26.9859 8.54191 25.4341 7.87174C23.8836 7.20214 22.079 6.86734 20.0204 6.86734C17.983 6.86734 16.1814 7.22615 14.6154 7.94378C13.065 8.65433 11.7298 9.72414 10.6099 11.1532C8.46847 13.9199 7.39777 17.6991 7.39777 22.4909C7.39777 24.9024 7.65952 27.0313 8.18302 28.8778C8.70979 30.7358 9.51844 32.366 10.609 33.7685C11.6959 35.1664 13.0223 36.2189 14.5881 36.9261C16.1684 37.6398 17.9792 37.9966 20.0204 37.9966ZM151.782 11.5833L159.188 11.5833L159.188 39.6242C159.188 40.17 159.082 40.6925 158.871 41.1917C158.667 41.6735 158.38 42.1001 158.009 42.4714C157.637 42.8427 157.211 43.1303 156.729 43.334C156.23 43.5452 155.707 43.6507 155.161 43.6507C154.615 43.6507 154.093 43.5452 153.594 43.334C153.112 43.1303 152.686 42.8427 152.314 42.4714C151.943 42.1001 151.655 41.6735 151.452 41.1917C151.24 40.6925 151.135 40.17 151.135 39.6242L151.135 11.5833L151.782 11.5833ZM151.782 12.8773L151.782 12.2303L152.429 12.2303L152.429 39.6242C152.429 39.9951 152.5 40.3496 152.643 40.6877C152.782 41.0145 152.977 41.3041 153.229 41.5564C153.481 41.8088 153.771 42.0041 154.098 42.1423C154.436 42.2853 154.79 42.3568 155.161 42.3568C155.532 42.3568 155.887 42.2853 156.225 42.1423C156.552 42.0041 156.841 41.8088 157.094 41.5564C157.346 41.3041 157.541 41.0145 157.679 40.6877C157.822 40.3496 157.894 39.9951 157.894 39.6242L157.894 12.2303L158.541 12.2303L158.541 12.8773L151.782 12.8773ZM410.078 11.5833L417.484 11.5833L417.484 39.0266C417.484 39.5725 417.378 40.095 417.167 40.5941C416.963 41.0759 416.676 41.5024 416.305 41.8738C415.933 42.2451 415.507 42.5326 415.025 42.7364C414.526 42.9475 414.003 43.0531 413.457 43.0531C412.912 43.0531 412.389 42.9475 411.89 42.7364C411.408 42.5326 410.982 42.2451 410.61 41.8738C410.239 41.5024 409.951 41.0759 409.748 40.5941C409.536 40.095 409.431 39.5725 409.431 39.0266L409.431 11.5833L410.078 11.5833ZM410.078 12.8773L410.078 12.2303L410.725 12.2303L410.725 39.0266C410.725 39.3975 410.796 39.752 410.939 40.09C411.078 40.4169 411.273 40.7065 411.525 40.9588C411.778 41.2111 412.067 41.4064 412.394 41.5447C412.732 41.6876 413.087 41.7591 413.457 41.7591C413.828 41.7591 414.183 41.6876 414.521 41.5447C414.848 41.4064 415.137 41.2111 415.39 40.9588C415.642 40.7065 415.837 40.4169 415.975 40.09C416.118 39.752 416.19 39.3975 416.19 39.0266L416.19 12.2303L416.837 12.2303L416.837 12.8773L410.078 12.8773ZM233.894 28.5995L229.229 15.4612C229.121 15.1568 228.969 14.8767 228.774 14.621C228.583 14.3708 228.359 14.1547 228.101 13.9727C227.843 13.7907 227.564 13.6516 227.265 13.5552C226.958 13.4568 226.644 13.4075 226.321 13.4075L221.804 13.4075L221.804 12.7606L222.408 12.527L231.695 36.5161L231.092 36.7497L230.493 36.5054L233.905 28.1387L234.504 28.383L233.894 28.5995ZM235.196 28.3989L231.076 38.5014L220.86 12.1136L226.321 12.1136C226.779 12.1136 227.226 12.1835 227.661 12.3233C228.086 12.4601 228.482 12.6575 228.847 12.9157C229.213 13.1738 229.531 13.4805 229.802 13.8357C230.08 14.1989 230.295 14.5964 230.449 15.0282L235.113 28.1665L235.196 28.3989ZM237.364 34.9512L234.169 43.3516L233.564 43.1216L234.173 42.9007L234.323 43.3136L232.485 47.7544L231.887 47.507L232.492 47.7363L231.548 50.2272L230.914 50.0374L231.1 49.4177L231.698 49.6649L230.814 51.8034C230.643 52.2158 230.583 52.6382 230.632 53.0705C230.679 53.4823 230.819 53.8629 231.052 54.2123C231.286 54.5616 231.584 54.8366 231.947 55.0371C232.328 55.2477 232.741 55.353 233.187 55.353C233.453 55.353 233.711 55.3131 233.963 55.2334C234.209 55.1553 234.439 55.0424 234.652 54.8947C234.865 54.747 235.051 54.5713 235.21 54.3678C235.373 54.1598 235.501 53.9317 235.593 53.6833L250.964 12.5342L251.57 12.7606L251.57 13.4075L247.092 13.4075C246.766 13.4075 246.447 13.4579 246.138 13.5586C245.835 13.6571 245.554 13.7993 245.295 13.9851C245.036 14.1709 244.811 14.3913 244.62 14.6462C244.425 14.9069 244.275 15.192 244.17 15.5015L239.371 29.6347L238.758 29.4267L239.227 28.9807L239.525 29.294L239.209 30.1138L238.606 29.8812L239.218 30.0891L236.877 36.9906L236.15 34.9372L236.759 34.7212L237.364 34.9512ZM236.781 32.8445L237.474 34.7997L236.864 35.0158L236.251 34.8079L237.997 29.6611L238.17 29.211L238.774 29.4435L238.306 29.8896L238.02 29.5893L242.945 15.0855C243.094 14.6464 243.307 14.2418 243.584 13.8715C243.854 13.5096 244.173 13.1968 244.541 12.9332C244.909 12.6697 245.308 12.468 245.738 12.3281C246.177 12.1851 246.629 12.1136 247.092 12.1136L252.502 12.1136L236.806 54.1361C236.666 54.5094 236.474 54.8525 236.229 55.1655C235.989 55.4717 235.709 55.7358 235.389 55.9578C235.07 56.1798 234.724 56.3495 234.354 56.4669C233.975 56.5869 233.586 56.647 233.187 56.647C232.519 56.647 231.896 56.4878 231.321 56.1695C230.775 55.8676 230.327 55.4549 229.977 54.9315C229.627 54.4081 229.417 53.8364 229.346 53.2166C229.272 52.563 229.363 51.9272 229.618 51.309L230.726 48.6301L231.342 48.8148L231.156 49.4345L230.551 49.2052L231.285 47.2684L233.031 43.0509L233.629 43.2983L233.021 43.5192L232.874 43.1164L236.155 34.4912L236.781 32.8445ZM99.2774 15.271C97.6288 14.5394 95.4499 14.1735 92.7407 14.1735L92.7407 13.5265L93.3877 13.5265L93.3877 14.228L92.7536 14.2407C90.3145 14.2895 88.3291 14.6527 86.7973 15.3303C85.1773 16.0485 83.789 17.2628 82.6323 18.973C80.903 21.5232 80.0356 24.5059 80.0302 27.9211C80.0302 30.5759 80.4418 32.8968 81.2651 34.8838C82.0796 36.8495 83.3008 38.4937 84.9287 39.8165C86.0542 40.7161 87.2974 41.3729 88.6585 41.7872C90.0032 42.1893 91.7573 42.3904 93.9207 42.3904L101.044 42.3904C101.383 42.3904 101.707 42.3251 102.016 42.1945C102.314 42.0682 102.579 41.8897 102.809 41.6591C103.04 41.4285 103.218 41.1639 103.345 40.8653C103.475 40.5564 103.541 40.2325 103.541 39.8936C103.541 39.5546 103.475 39.2307 103.345 38.9219C103.218 38.6232 103.04 38.3586 102.809 38.128C102.579 37.8974 102.314 37.719 102.016 37.5927C101.707 37.462 101.383 37.3967 101.044 37.3967L94.7716 37.3967C94.1517 37.3967 93.503 37.3708 92.8254 37.3191C92.1131 37.2647 91.4401 37.1868 90.8064 37.0856C89.2579 36.8382 88.1973 36.4927 87.6245 36.0492C87.325 35.8173 87.0336 35.5443 86.7502 35.2301C86.4548 34.9026 86.1856 34.5495 85.9428 34.1709C85.3858 33.3024 85.0283 32.4085 84.8704 31.489L84.7405 30.7325L93.0859 30.7325L96.6979 30.671L100.294 30.6231L100.302 30.6232C101.244 30.6347 102.002 30.5829 102.576 30.4679C103.255 30.3321 103.798 30.0923 104.206 29.7483C104.667 29.3602 105.006 28.8011 105.221 28.071C105.475 27.2104 105.568 26.0962 105.5 24.7283C105.476 24.1866 105.413 23.6232 105.313 23.038C105.216 22.4748 105.09 21.9213 104.934 21.3775C104.781 20.8453 104.609 20.3571 104.419 19.9128C104.232 19.4748 104.04 19.1111 103.845 18.8217C103.317 18.0402 102.622 17.3313 101.762 16.695C101.038 16.1594 100.21 15.6848 99.2774 15.271ZM99.8023 14.0883C100.821 14.5405 101.731 15.0626 102.531 15.6546C103.511 16.3789 104.306 17.1928 104.916 18.0964C105.158 18.4543 105.389 18.8902 105.609 19.4042C105.82 19.8978 106.009 20.4365 106.177 21.0202C106.347 21.6095 106.484 22.2092 106.588 22.8192C106.698 23.4575 106.766 24.0725 106.793 24.6642C106.868 26.1784 106.758 27.4361 106.462 28.4372C106.173 29.416 105.699 30.183 105.04 30.7381C104.462 31.2246 103.726 31.5575 102.83 31.7367C102.167 31.8695 101.319 31.9296 100.287 31.917L100.294 31.2701L100.303 31.917L96.7199 31.9648L93.0859 32.0265L85.508 32.0265L85.508 31.3795L86.1457 31.27C86.274 32.017 86.5694 32.7511 87.032 33.4723C87.2366 33.7914 87.463 34.0884 87.7111 34.3634C87.9429 34.6205 88.1781 34.8413 88.4167 35.0261C88.6036 35.1708 88.9228 35.3118 89.3741 35.4489C89.8253 35.586 90.3708 35.7056 91.0105 35.8078C91.6092 35.9035 92.247 35.9772 92.9239 36.0289C93.5688 36.0781 94.1847 36.1027 94.7716 36.1027L101.044 36.1027C101.558 36.1027 102.05 36.2021 102.52 36.4009C102.973 36.5928 103.375 36.8635 103.724 37.2131C104.074 37.5626 104.345 37.9642 104.536 38.4178C104.735 38.8878 104.835 39.3797 104.835 39.8936C104.835 40.4074 104.735 40.8994 104.537 41.3693C104.345 41.8229 104.074 42.2245 103.724 42.5741C103.375 42.9237 102.973 43.1944 102.52 43.3862C102.05 43.585 101.558 43.6844 101.044 43.6844L93.9207 43.6844C91.6311 43.6844 89.7514 43.4646 88.2818 43.0251C86.7625 42.5627 85.3728 41.8279 84.1127 40.8208C82.3154 39.3603 80.9678 37.5465 80.0697 35.3791C79.1807 33.2335 78.7362 30.7468 78.7362 27.919C78.742 24.2397 79.6834 21.016 81.5605 18.2481C82.8558 16.3328 84.4269 14.9658 86.2738 14.1469C87.9641 13.3992 90.1154 12.9992 92.7278 12.947L92.7407 13.5939L92.0937 13.5939L92.0937 12.8795L92.7407 12.8795C95.6327 12.8795 97.9866 13.2825 99.8023 14.0883L99.8023 14.0883ZM184.344 16.8137C184.344 16.4553 184.275 16.1128 184.137 15.7862C184.003 15.4704 183.815 15.1906 183.571 14.9468C183.327 14.703 183.047 14.5143 182.731 14.3807C182.405 14.2426 182.062 14.1735 181.704 14.1735C181.345 14.1735 181.003 14.2426 180.676 14.3807C180.361 14.5143 180.081 14.703 179.837 14.9468C179.593 15.1906 179.404 15.4704 179.271 15.7862C179.133 16.1128 179.064 16.4553 179.064 16.8137L179.064 39.9775C179.064 40.3359 179.133 40.6784 179.271 41.005C179.404 41.3208 179.593 41.6006 179.837 41.8444C180.081 42.0882 180.361 42.2769 180.676 42.4105C181.003 42.5486 181.345 42.6177 181.704 42.6177C182.062 42.6177 182.405 42.5486 182.731 42.4105C183.047 42.2769 183.327 42.0882 183.571 41.8444C183.815 41.6006 184.003 41.3208 184.137 41.005C184.275 40.6783 184.344 40.3358 184.344 39.9775L184.344 16.8137ZM185.638 16.8137L185.638 39.9775C185.638 40.5108 185.535 41.0213 185.329 41.509C185.129 41.9798 184.848 42.3966 184.486 42.7594C184.123 43.1221 183.706 43.4031 183.235 43.6022C182.748 43.8085 182.237 43.9117 181.704 43.9117C181.17 43.9117 180.66 43.8085 180.172 43.6022C179.701 43.4031 179.285 43.1222 178.922 42.7594C178.559 42.3966 178.278 41.9798 178.079 41.509C177.873 41.0213 177.77 40.5108 177.77 39.9775L177.77 16.8137C177.77 16.2804 177.873 15.7699 178.079 15.2822C178.278 14.8114 178.559 14.3946 178.922 14.0318C179.285 13.6691 179.701 13.3881 180.172 13.189C180.66 12.9827 181.17 12.8795 181.704 12.8795C182.237 12.8795 182.748 12.9827 183.235 13.189C183.706 13.3881 184.123 13.669 184.486 14.0318C184.848 14.3946 185.129 14.8114 185.329 15.2822C185.535 15.7699 185.638 16.2804 185.638 16.8137ZM111.44 18.2595C111.44 17.5393 111.579 16.8499 111.857 16.1914C112.126 15.5557 112.506 14.9929 112.996 14.5029C113.486 14.0129 114.048 13.6335 114.684 13.3646C115.343 13.0861 116.032 12.9469 116.752 12.9469L119.635 12.9469L119.722 39.5381C119.722 40.1017 119.614 40.6407 119.397 41.1549C119.188 41.6519 118.893 42.0918 118.512 42.4748C118.13 42.8583 117.691 43.1552 117.196 43.3656C116.682 43.5838 116.143 43.6928 115.581 43.6928C115.019 43.6928 114.482 43.5842 113.969 43.3671C113.473 43.1575 113.034 42.8618 112.653 42.4799C112.271 42.098 111.975 41.6593 111.765 41.1638C111.548 40.6504 111.44 40.113 111.44 39.5516L111.44 18.2595ZM112.734 18.2595L112.734 39.5516C112.734 39.9381 112.808 40.3074 112.957 40.6597C113.101 41.0002 113.305 41.302 113.568 41.5649C113.83 41.8278 114.132 42.0313 114.473 42.1754C114.825 42.3244 115.194 42.3989 115.581 42.3989C115.968 42.3989 116.338 42.3241 116.69 42.1745C117.03 42.03 117.332 41.8258 117.595 41.5619C117.857 41.298 118.061 40.995 118.205 40.653C118.354 40.2992 118.428 39.929 118.428 39.5423L118.343 13.596L118.99 13.5939L118.99 14.2408L116.752 14.2408C116.207 14.2408 115.686 14.346 115.188 14.5564C114.707 14.7597 114.282 15.0469 113.911 15.4179C113.54 15.7889 113.252 16.2148 113.049 16.6955C112.839 17.1928 112.734 17.7142 112.734 18.2595ZM122.622 19.8815L122.622 12.9469L126.969 12.9469C129.263 12.9469 131.025 13.1267 132.256 13.4863C133.557 13.8738 134.711 14.5376 135.719 15.4776C137.814 17.5064 138.865 20.6463 138.871 24.8973L138.871 39.6503C138.871 40.1982 138.765 40.7228 138.553 41.224C138.348 41.7077 138.059 42.136 137.687 42.5088C137.314 42.8816 136.886 43.1703 136.402 43.3749C135.901 43.5868 135.376 43.6928 134.828 43.6928C134.28 43.6928 133.755 43.5868 133.254 43.3749C132.771 43.1703 132.342 42.8816 131.97 42.5088C131.597 42.136 131.308 41.7077 131.103 41.224C130.891 40.7228 130.785 40.1982 130.786 39.6503L130.786 23.9976C130.785 22.7169 130.537 21.8164 130.041 21.296C129.553 20.7844 128.69 20.5285 127.451 20.5285L122.622 20.5285L122.622 19.8815ZM123.916 19.8815L123.269 19.8815L123.269 19.2346L127.451 19.2346C129.059 19.2346 130.235 19.6241 130.978 20.403C131.712 21.1733 132.079 22.3715 132.079 23.9976L132.079 39.6503C132.079 40.0233 132.151 40.3799 132.295 40.7199C132.434 41.0487 132.631 41.34 132.885 41.5938C133.138 41.8476 133.43 42.0441 133.758 42.1831C134.098 42.3269 134.455 42.3989 134.828 42.3989C135.201 42.3989 135.558 42.3269 135.898 42.1831C136.227 42.0441 136.518 41.8476 136.772 41.5938C137.025 41.34 137.222 41.0487 137.361 40.7199C137.505 40.3799 137.577 40.0233 137.577 39.6503L137.577 24.8991C137.571 21.0129 136.658 18.1877 134.836 16.4238C133.977 15.6219 132.996 15.0568 131.893 14.7283C130.781 14.4033 129.139 14.2408 126.969 14.2408L123.269 14.2408L123.269 13.5939L123.916 13.5939L123.916 19.8815ZM199.236 13.5939L199.236 23.2316L198.589 23.2316L198.589 22.5846L199.317 22.5846L199.317 39.5459C199.317 40.1081 199.208 40.6462 198.99 41.1603C198.781 41.6565 198.484 42.0958 198.102 42.4782C197.72 42.8606 197.28 43.1568 196.784 43.3667C196.27 43.5841 195.732 43.6928 195.17 43.6928C194.607 43.6928 194.069 43.5841 193.555 43.3667C193.059 43.1568 192.62 42.8606 192.237 42.4782C191.855 42.0958 191.559 41.6565 191.349 41.1603C191.131 40.6462 191.023 40.1081 191.023 39.5459L191.023 17.0588C191.023 16.5014 191.131 15.9678 191.346 15.4581C191.554 14.966 191.848 14.5304 192.227 14.1512C192.606 13.772 193.042 13.4784 193.534 13.2703C194.044 13.0547 194.577 12.9469 195.135 12.9469L199.236 12.9469L199.236 13.5939ZM197.942 13.5939L198.589 13.5939L198.589 14.2408L195.135 14.2408C194.752 14.2408 194.387 14.3146 194.038 14.462C193.701 14.6046 193.402 14.806 193.142 15.0662C192.882 15.3264 192.68 15.6251 192.538 15.9621C192.39 16.3107 192.317 16.6763 192.317 17.0588L192.317 39.5459C192.317 39.9332 192.391 40.3033 192.541 40.6562C192.685 40.9974 192.889 41.2998 193.152 41.5632C193.416 41.8267 193.718 42.0306 194.059 42.1749C194.412 42.3242 194.782 42.3989 195.17 42.3989C195.557 42.3989 195.927 42.3242 196.28 42.1749C196.621 42.0306 196.924 41.8267 197.187 41.5632C197.45 41.2998 197.654 40.9974 197.799 40.6562C197.948 40.3033 198.023 39.9332 198.023 39.5459L198.023 23.2316L198.67 23.2316L198.67 23.8786L197.942 23.8786L197.942 13.5939ZM203.189 19.2346L207.034 19.2346C208.642 19.2346 209.818 19.6241 210.561 20.403C211.295 21.1733 211.663 22.3715 211.663 23.9976L211.663 39.6502C211.663 40.0233 211.735 40.3799 211.878 40.7199C212.017 41.0487 212.214 41.34 212.468 41.5938C212.721 41.8476 213.013 42.0441 213.342 42.1831C213.682 42.3269 214.038 42.3989 214.411 42.3989C214.784 42.3989 215.141 42.3269 215.481 42.1831C215.81 42.0441 216.101 41.8476 216.355 41.5938C216.609 41.34 216.805 41.0487 216.944 40.7199C217.088 40.3799 217.16 40.0233 217.16 39.6502L217.16 24.8982C217.16 21.0074 216.246 18.1801 214.419 16.4161C213.565 15.6194 212.586 15.0564 211.481 14.7274C210.37 14.3975 208.73 14.2354 206.562 14.2408L203.189 14.2408L203.189 13.5939L203.836 13.5939L203.836 19.8815L203.189 19.8815L203.189 19.2346ZM202.542 20.5285L202.542 12.9469L206.559 12.9469C208.853 12.9411 210.617 13.1212 211.851 13.4873C213.149 13.8742 214.305 14.5402 215.318 15.4853C217.409 17.5036 218.454 20.6412 218.454 24.8982L218.454 39.6502C218.454 40.1982 218.348 40.7228 218.136 41.224C217.931 41.7077 217.643 42.136 217.27 42.5088C216.897 42.8816 216.469 43.1703 215.985 43.3749C215.484 43.5868 214.959 43.6928 214.411 43.6928C213.863 43.6928 213.339 43.5868 212.837 43.3749C212.354 43.1703 211.925 42.8816 211.553 42.5088C211.18 42.136 210.891 41.7077 210.687 41.224C210.475 40.7228 210.369 40.1982 210.369 39.6502L210.369 23.9976C210.369 22.7169 210.121 21.8164 209.624 21.296C209.136 20.7844 208.273 20.5285 207.034 20.5285L203.189 20.5285L202.542 20.5285ZM86.9531 20.3526C87.3664 20.0364 87.8793 19.7864 88.4919 19.6025C88.9998 19.4501 89.5864 19.3404 90.2517 19.2736C90.7815 19.2204 91.3865 19.1924 92.0668 19.1896C92.4662 19.188 93.0314 19.1974 93.7623 19.218L93.7441 19.8647L93.7441 19.2177L95.6043 19.2177L95.6263 19.2192C96.5012 19.2787 97.2367 19.3888 97.8327 19.5493C98.6202 19.7615 99.2053 20.0732 99.5881 20.4846C99.8997 20.8183 100.156 21.142 100.357 21.4558C100.563 21.779 100.731 22.1217 100.858 22.4839C100.976 22.816 101.071 23.1993 101.145 23.6338C101.205 23.9843 101.262 24.4414 101.316 25.0049L101.384 25.7151L84.7883 25.6783L84.8647 24.9641C84.9198 24.4487 84.9843 24.0061 85.0581 23.6363C85.149 23.1803 85.2652 22.7725 85.4067 22.4129C85.7356 21.5768 86.2511 20.89 86.953 20.3526L86.9531 20.3526ZM87.7396 21.3801C87.4704 21.5862 87.2422 21.8162 87.0551 22.0703C86.8789 22.3097 86.7308 22.5818 86.6108 22.8866C86.4975 23.1746 86.4029 23.5089 86.327 23.8894C86.2609 24.221 86.2023 24.6251 86.1513 25.1017L85.508 25.0329L85.5095 24.3859L100.673 24.4196L100.672 25.0666L100.028 25.1283C99.9767 24.5962 99.924 24.1704 99.8696 23.8511C99.808 23.4893 99.7308 23.1771 99.6381 22.9145C99.5435 22.6462 99.4196 22.3923 99.2665 22.153C99.1083 21.9056 98.8997 21.6433 98.6407 21.366C98.4264 21.1357 98.0449 20.9466 97.4962 20.7988C96.9817 20.6602 96.3291 20.564 95.5385 20.5102L95.5824 19.8647L95.5824 20.5117L93.735 20.5117L93.7259 20.5114C93.0089 20.4913 92.4576 20.482 92.072 20.4835C91.4332 20.4861 90.8696 20.512 90.3811 20.5611C89.1754 20.6822 88.2948 20.9553 87.7395 21.3802L87.7396 21.3801ZM330.96 37.3401L347.276 37.3401C347.774 37.3401 348.25 37.4363 348.705 37.6287C349.144 37.8143 349.532 38.0763 349.871 38.4146C350.209 38.753 350.471 39.1416 350.657 39.5806C350.849 40.0354 350.945 40.5115 350.945 41.0089C350.945 41.5062 350.849 41.9823 350.657 42.4371C350.471 42.8761 350.209 43.2647 349.871 43.6031C349.532 43.9414 349.144 44.2034 348.705 44.389C348.25 44.5814 347.774 44.6776 347.276 44.6776L330.313 44.6776L330.313 37.3401L330.96 37.3401ZM330.96 38.634L330.96 37.9871L331.607 37.9871L331.607 44.0306L330.96 44.0306L330.96 43.3837L347.276 43.3837C347.599 43.3837 347.907 43.3215 348.201 43.1973C348.485 43.0772 348.736 42.9074 348.956 42.6881C349.175 42.4688 349.345 42.2171 349.465 41.933C349.589 41.6393 349.651 41.3312 349.651 41.0089C349.651 40.6865 349.589 40.3784 349.465 40.0847C349.345 39.8006 349.175 39.5489 348.956 39.3296C348.736 39.1103 348.485 38.9405 348.201 38.8204C347.907 38.6962 347.599 38.634 347.276 38.634L330.96 38.634Z" fill="rgb(0,0,0)" fill-opacity="0" fill-rule="nonzero" />
		<path id="矢量_12" d="M364.932 1.72974L370.824 10.9929L366.577 16.6493L355.58 4.81639e-07L361.782 0C363.059 0 364.247 0.652443 364.932 1.72974ZM59.4668 12.7101L47.8075 12.7101C46.1426 12.7101 44.7928 14.0598 44.7928 15.7247C44.7928 17.3721 46.1153 18.7145 47.7625 18.7391L51.5519 18.7957L51.5519 18.7536L58.9531 18.7536C61.8991 18.7536 64.0906 19.3008 65.4713 20.4455C66.852 21.5903 67.6066 23.3495 67.6066 25.9504C67.6066 28.5513 66.9082 30.4284 65.5275 31.5731C64.1468 32.7179 61.9473 33.265 58.9531 33.265L51.6964 33.265L44.7928 33.4586L44.7928 52.5151C44.7928 54.3793 46.3041 55.8906 48.1683 55.8906C50.0326 55.8906 51.5438 54.3793 51.5438 52.5151L51.5438 39.317L59.3545 39.317C69.3967 39.317 74.4138 34.839 74.4138 25.9504C74.4138 17.0618 69.3886 12.7101 59.4668 12.7101ZM331.361 18.0213L331.361 24.0649L345.309 24.0649C346.978 24.0649 348.331 22.712 348.331 21.0431C348.331 19.3742 346.978 18.0213 345.309 18.0213L331.361 18.0213ZM383.033 41.4507L375.985 30.3695L379.983 24.5195L392.385 43.1805L386.183 43.1805C384.906 43.1805 383.718 42.528 383.033 41.4507Z" fill="rgb(20,118,255)" fill-rule="evenodd" />
		<path id="矢量_12" d="M370.038 10.9625L366.611 15.5267L356.782 0.646982L361.782 0.646982C362.046 0.646982 362.302 0.678747 362.549 0.742277C362.797 0.805779 363.036 0.901018 363.267 1.028C363.499 1.15497 363.707 1.30585 363.894 1.48062C364.08 1.65548 364.244 1.85426 364.386 2.07697L370.038 10.9625ZM370.824 10.9929L364.932 1.72974C364.247 0.652443 363.059 0 361.782 0L355.58 0L356.007 0.646982L366.198 16.0761L366.577 16.6493L366.99 16.0999L370.824 10.9929ZM52.1908 39.317L59.3545 39.317C69.3967 39.317 74.4138 34.839 74.4138 25.9504C74.4138 17.0618 69.3886 12.7101 59.4668 12.7101L47.8075 12.7101C46.1426 12.7101 44.7928 14.0598 44.7928 15.7247C44.7928 17.3721 46.1153 18.7145 47.7625 18.7391L50.9049 18.7861L51.5519 18.7957L51.5519 18.7536L58.9531 18.7536C61.8991 18.7536 64.0906 19.3008 65.4713 20.4455C66.852 21.5903 67.6066 23.3495 67.6066 25.9504C67.6066 28.5513 66.9082 30.4284 65.5275 31.5731C64.1468 32.7179 61.9473 33.265 58.9531 33.265L51.6964 33.265L44.7928 33.4586L44.7928 52.5151C44.7928 54.3793 46.3041 55.8906 48.1683 55.8906C50.0326 55.8906 51.5438 54.3793 51.5438 52.5151L51.5438 39.317L52.1908 39.317ZM45.4398 34.0877L45.4398 52.5151C45.4398 52.7248 45.4627 52.9293 45.5085 53.1285C45.5436 53.2811 45.5921 53.4305 45.654 53.5769C45.7177 53.7276 45.7936 53.8704 45.8816 54.0052C45.9843 54.1624 46.1034 54.3088 46.239 54.4444C46.3746 54.58 46.521 54.6991 46.6782 54.8018C46.813 54.8898 46.9558 54.9657 47.1065 55.0294C47.2529 55.0914 47.4024 55.1399 47.555 55.1749C47.7542 55.2207 47.9586 55.2436 48.1683 55.2436C48.3781 55.2436 48.5825 55.2207 48.7817 55.1749C48.9343 55.1399 49.0838 55.0914 49.2302 55.0294C49.381 54.9657 49.5238 54.8897 49.6587 54.8016C49.8158 54.6991 49.9621 54.58 50.0977 54.4444C50.2333 54.3089 50.3523 54.1625 50.4549 54.0055C50.543 53.8706 50.6189 53.7277 50.6827 53.5769C50.7446 53.4305 50.7931 53.2811 50.8282 53.1285C50.874 52.9293 50.8969 52.7248 50.8969 52.5151L50.8969 38.67L59.3545 38.67C64.2081 38.67 67.83 37.6078 70.2201 35.4833C70.4671 35.2638 70.7011 35.0326 70.9223 34.7896C72.8186 32.7062 73.7668 29.7598 73.7668 25.9504C73.7668 22.1538 72.8211 19.2252 70.9298 17.1646C70.7104 16.9256 70.4782 16.6982 70.2333 16.4825C67.8678 14.3989 64.279 13.357 59.4668 13.357L47.8075 13.357C47.6249 13.357 47.4468 13.377 47.2734 13.417C47.1416 13.4474 47.0125 13.4894 46.8861 13.5428C46.7556 13.598 46.632 13.6637 46.5152 13.7399C46.3785 13.8291 46.2512 13.9326 46.1333 14.0505C46.0154 14.1684 45.9119 14.2957 45.8227 14.4324C45.7465 14.5492 45.6808 14.6728 45.6256 14.8033C45.5722 14.9297 45.5302 15.0588 45.4998 15.1906C45.4598 15.364 45.4398 15.5421 45.4398 15.7247C45.4398 15.9052 45.4594 16.0811 45.4984 16.2526C45.5283 16.3835 45.5695 16.5119 45.6221 16.6376C45.6763 16.7673 45.741 16.8904 45.816 17.0067C45.9035 17.1424 46.0051 17.2689 46.1209 17.3864C46.2366 17.5039 46.3616 17.6074 46.496 17.6969C46.6112 17.7737 46.7332 17.8401 46.8621 17.8963C46.9871 17.9508 47.1147 17.9939 47.2452 18.0257C47.4161 18.0673 47.5918 18.0895 47.7722 18.0922L50.9049 18.139L50.9049 18.1067L58.9531 18.1067C62.0937 18.1067 64.4041 18.7203 65.8842 19.9474C66.1546 20.1716 66.4017 20.4154 66.6256 20.679C67.055 21.1844 67.3991 21.7623 67.6579 22.4127C68.055 23.411 68.2536 24.5902 68.2536 25.9504C68.2536 28.4958 67.6173 30.4126 66.3447 31.7008C66.2164 31.8306 66.0816 31.9541 65.9404 32.0712C65.1795 32.702 64.2012 33.1701 63.0053 33.4752C61.8644 33.7664 60.5136 33.912 58.9531 33.912L51.7055 33.912L45.4398 34.0877ZM345.309 23.4179L332.008 23.4179L332.008 18.6683L345.309 18.6683C345.492 18.6683 345.671 18.6883 345.844 18.7284C345.977 18.7589 346.106 18.801 346.233 18.8547C346.364 18.91 346.488 18.9758 346.605 19.0522C346.742 19.1417 346.87 19.2456 346.988 19.3639C347.107 19.4822 347.211 19.6099 347.3 19.747C347.376 19.8641 347.442 19.9881 347.498 20.1189C347.551 20.2458 347.593 20.3754 347.624 20.5076C347.664 20.6815 347.684 20.86 347.684 21.0431C347.684 21.2262 347.664 21.4047 347.624 21.5786C347.593 21.7108 347.551 21.8404 347.498 21.9673C347.442 22.0982 347.376 22.2222 347.3 22.3393C347.211 22.4764 347.107 22.6041 346.988 22.7224C346.87 22.8407 346.742 22.9446 346.605 23.0341C346.488 23.1104 346.364 23.1763 346.233 23.2316C346.106 23.2853 345.977 23.3274 345.844 23.3579C345.671 23.3979 345.492 23.4179 345.309 23.4179ZM332.008 18.0213L345.309 18.0213C346.978 18.0213 348.331 19.3742 348.331 21.0431C348.331 22.712 346.978 24.0649 345.309 24.0649L331.361 24.0649L331.361 18.0213L332.008 18.0213ZM375.985 30.3695L379.589 25.0958L379.983 24.5195L380.369 25.1008L391.955 42.5335L392.385 43.1805L386.183 43.1805C384.906 43.1805 383.718 42.528 383.033 41.4507L375.985 30.3695ZM391.178 42.5335L379.975 25.6771L376.76 30.3822L383.579 41.1035C383.72 41.326 383.884 41.5246 384.07 41.6994C384.257 41.8744 384.466 42.0254 384.697 42.1525C384.929 42.2795 385.168 42.3748 385.416 42.4383C385.663 42.5018 385.919 42.5335 386.183 42.5335L391.178 42.5335Z" fill="rgb(0,0,0)" fill-opacity="0" fill-rule="evenodd" />
		<path id="矢量_13" d="M177.333 4.2C177.333 1.8804 179.214 0 181.533 0C183.853 0 185.733 1.8804 185.733 4.2C185.733 6.5196 183.853 8.4 181.533 8.4C179.214 8.4 177.333 6.5196 177.333 4.2Z" fill="rgb(20,118,255)" fill-rule="evenodd" />
		<path id="矢量_13" d="M181.533 0C179.214 0 177.333 1.8804 177.333 4.2C177.333 6.5196 179.214 8.4 181.533 8.4C183.853 8.4 185.733 6.5196 185.733 4.2C185.733 1.8804 183.853 0 181.533 0ZM178.069 4.99477C178.01 4.73659 177.98 4.47167 177.98 4.2C177.98 3.92832 178.01 3.6634 178.069 3.40522C178.115 3.20516 178.178 3.00916 178.259 2.8172C178.343 2.62019 178.442 2.4336 178.557 2.25742C178.69 2.05354 178.845 1.86362 179.021 1.68764C179.197 1.51166 179.387 1.35701 179.591 1.22371C179.767 1.10852 179.954 1.00926 180.151 0.92593C180.343 0.84474 180.539 0.781273 180.739 0.735529C180.997 0.676498 181.262 0.646982 181.533 0.646982C181.805 0.646982 182.07 0.676499 182.328 0.735532C182.528 0.781276 182.724 0.844741 182.916 0.92593C183.113 1.00926 183.3 1.10852 183.476 1.22371C183.68 1.35702 183.87 1.51166 184.046 1.68764C184.222 1.86361 184.376 2.05353 184.51 2.2574C184.625 2.43358 184.724 2.62018 184.807 2.8172C184.889 3.00917 184.952 3.20519 184.998 3.40526C185.057 3.66343 185.086 3.92834 185.086 4.2C185.086 4.47166 185.057 4.73657 184.998 4.99474C184.952 5.19481 184.889 5.39083 184.807 5.5828C184.724 5.77982 184.625 5.96642 184.51 6.14261C184.376 6.34648 184.222 6.5364 184.046 6.71236C183.87 6.88833 183.68 7.04297 183.476 7.17627C183.3 7.29147 183.113 7.39074 182.916 7.47407C182.724 7.55526 182.528 7.61873 182.328 7.66448C182.07 7.7235 181.805 7.75302 181.533 7.75302C181.262 7.75302 180.997 7.72351 180.739 7.66448C180.539 7.61873 180.343 7.55526 180.151 7.47407C179.954 7.39074 179.767 7.29147 179.591 7.17627C179.387 7.04297 179.197 6.88833 179.021 6.71236C178.845 6.53639 178.69 6.34646 178.557 6.14258C178.442 5.9664 178.343 5.77981 178.259 5.5828C178.178 5.39084 178.115 5.19483 178.069 4.99477Z" fill="rgb(0,0,0)" fill-opacity="0" fill-rule="evenodd" />
	</g>
</svg>
