<svg viewBox="0 0 20 20" xmlns="http://www.w3.org/2000/svg" xmlns:xlink="http://www.w3.org/1999/xlink" width="20.000031" height="20.000000" fill="none" customFrame="#000000">
	<defs>
		<linearGradient id="paint_linear_6" x1="10.0000076" x2="10.0000076" y1="0" y2="20" gradientUnits="userSpaceOnUse">
			<stop stop-color="rgb(20,118,255)" offset="0" stop-opacity="1" />
			<stop stop-color="rgb(65,145,250)" offset="1" stop-opacity="1" />
		</linearGradient>
	</defs>
	<rect id="iconpro_digitalassistant" width="20.000000" height="20.000000" x="0.000000" y="0.000000" />
	<path id="路径" d="M0.00243018 9.99186C0.00243018 8.4296 -0.00303773 6.86734 0.00243018 5.30508C-0.0007129 4.5491 0.0922044 3.79579 0.27895 3.06324C0.688262 1.51269 1.69826 0.592524 3.24724 0.235548C4.02392 0.0677397 4.81721 -0.0108819 5.61172 0.00120916C8.60761 0.00120916 11.6038 0.00120916 14.6002 0.00120916C15.3569 -0.00348837 16.1115 0.0830603 16.8475 0.258982C18.4433 0.649547 19.401 1.66033 19.7658 3.25071C19.9298 4.00235 20.0081 4.77014 19.9993 5.53942C19.9993 8.5676 19.9993 11.596 19.9993 14.6247C20.0034 15.3742 19.9172 16.1214 19.7424 16.8502C19.3518 18.4468 18.3363 19.3998 16.7459 19.7646C15.9692 19.9317 15.1759 20.0104 14.3815 19.9989C11.3981 19.9989 8.41494 19.9989 5.43206 19.9989C4.66954 20.0051 3.90902 19.9199 3.16679 19.745C1.56391 19.3545 0.601557 18.339 0.23755 16.7408C0.0516414 15.9284 0.00243018 15.1137 0.00243018 14.292C0.00243018 12.8589 0.00243018 11.4255 0.00243018 9.99186Z" fill="url(#paint_linear_6)" fill-rule="evenodd" />
	<g id="ic_public_qrcode_1_1">
		<path id="ic_public_qrcode_2_0" d="M4.37637 9.99542C4.37637 9.11665 4.37329 8.23788 4.37637 7.35911C4.3746 6.93387 4.42687 6.51013 4.53191 6.09807C4.76215 5.22589 5.33027 4.70829 6.20157 4.5075C6.63845 4.4131 7.08468 4.36888 7.53159 4.37568C9.21678 4.37568 10.9021 4.37568 12.5876 4.37568C13.0133 4.37304 13.4377 4.42172 13.8517 4.52068C14.7494 4.74037 15.2881 5.30893 15.4932 6.20352C15.5855 6.62632 15.6296 7.05821 15.6246 7.49092C15.6246 9.19427 15.6246 10.8978 15.6246 12.6014C15.6269 13.023 15.5784 13.4433 15.4801 13.8532C15.2604 14.7513 14.6892 15.2874 13.7946 15.4926C13.3576 15.5866 12.9115 15.6308 12.4646 15.6244C10.7864 15.6244 9.1084 15.6244 7.43053 15.6244C7.00161 15.6279 6.57382 15.5799 6.15632 15.4816C5.2547 15.2619 4.71338 14.6907 4.50862 13.7917C4.40405 13.3347 4.37637 12.8765 4.37637 12.4142C4.37637 11.6081 4.37637 10.8018 4.37637 9.99542Z" fill="rgb(255,255,255)" fill-opacity="0" fill-rule="nonzero" />
		<path id="ic_public_qrcode_2_0" d="M4.37637 7.35911C4.3746 6.93387 4.42687 6.51013 4.53191 6.09807C4.76215 5.22589 5.33027 4.70829 6.20157 4.5075C6.63845 4.4131 7.08468 4.36888 7.53159 4.37568C9.21678 4.37568 10.9021 4.37568 12.5876 4.37568C13.0133 4.37304 13.4377 4.42172 13.8517 4.52068C14.7494 4.74037 15.2881 5.30893 15.4932 6.20352C15.5855 6.62632 15.6296 7.05821 15.6246 7.49092C15.6246 9.19427 15.6246 10.8978 15.6246 12.6014C15.6269 13.023 15.5784 13.4433 15.4801 13.8532C15.2604 14.7513 14.6892 15.2874 13.7946 15.4926C13.3576 15.5866 12.9115 15.6308 12.4646 15.6244C10.7864 15.6244 9.1084 15.6244 7.43053 15.6244C7.00161 15.6279 6.57382 15.5799 6.15632 15.4816C5.2547 15.2619 4.71338 14.6907 4.50862 13.7917C4.40405 13.3347 4.37637 12.8765 4.37637 12.4142C4.37637 11.6081 4.37637 10.8018 4.37637 9.99542C4.37637 9.11665 4.37329 8.23788 4.37637 7.35911Z" fill-rule="nonzero" stroke="rgb(255,255,255)" stroke-opacity="0" stroke-width="1.5" />
		<path id="ic_public_qrcode_2_1" d="M4.37637 7.35911C4.3746 6.93387 4.42687 6.51013 4.53191 6.09807C4.76215 5.22589 5.33027 4.70829 6.20157 4.5075C6.63845 4.4131 7.08468 4.36888 7.53159 4.37568C9.21678 4.37568 10.9021 4.37568 12.5876 4.37568C13.0133 4.37304 13.4377 4.42172 13.8517 4.52068C14.7494 4.74037 15.2881 5.30893 15.4932 6.20352C15.5855 6.62632 15.6296 7.05821 15.6246 7.49092C15.6246 9.19427 15.6246 10.8978 15.6246 12.6014C15.6269 13.023 15.5784 13.4433 15.4801 13.8532C15.2604 14.7513 14.6892 15.2874 13.7946 15.4926C13.3576 15.5866 12.9115 15.6308 12.4646 15.6244C10.7864 15.6244 9.1084 15.6244 7.43053 15.6244C7.00161 15.6279 6.57382 15.5799 6.15632 15.4816C5.2547 15.2619 4.71338 14.6907 4.50862 13.7917C4.40405 13.3347 4.37637 12.8765 4.37637 12.4142C4.37637 11.6081 4.37637 10.8018 4.37637 9.99542C4.37637 9.11665 4.37329 8.23788 4.37637 7.35911Z" opacity="0.200000003" fill-rule="nonzero" stroke="rgb(255,255,255)" stroke-opacity="0" stroke-width="1.5" />
		<circle id="ic_public_qrcode_2_2" cx="10" cy="10" r="6" fill="rgb(255,255,255)" fill-opacity="0" />
		<path id="ic_public_qrcode_2_3" d="M5.25 4.75L8.5 4.75C8.77614 4.75 9 4.97386 9 5.25L9 8.5C9 8.77614 8.77614 9 8.5 9L5.25 9C4.97386 9 4.75 8.77614 4.75 8.5L4.75 5.25C4.75 4.97386 4.97386 4.75 5.25 4.75ZM5.25 11L8.5 11C8.77614 11 9 11.2239 9 11.5L9 14.75C9 15.0261 8.77614 15.25 8.5 15.25L5.25 15.25C4.97386 15.25 4.75 15.0261 4.75 14.75L4.75 11.5C4.75 11.2239 4.97386 11 5.25 11ZM11.5 4.75L14.75 4.75C15.0261 4.75 15.25 4.97386 15.25 5.25L15.25 8.5C15.25 8.77614 15.0261 9 14.75 9L11.5 9C11.2239 9 11 8.77614 11 8.5L11 5.25C11 4.97386 11.2239 4.75 11.5 4.75Z" fill="rgb(255,255,255)" fill-rule="evenodd" />
		<path id="ic_public_qrcode_2_3" d="M8.5 4.75C8.77614 4.75 9 4.97386 9 5.25L9 8.5C9 8.77614 8.77614 9 8.5 9L5.25 9C4.97386 9 4.75 8.77614 4.75 8.5L4.75 5.25C4.75 4.97386 4.97386 4.75 5.25 4.75L8.5 4.75ZM8.5 11C8.77614 11 9 11.2239 9 11.5L9 14.75C9 15.0261 8.77614 15.25 8.5 15.25L5.25 15.25C4.97386 15.25 4.75 15.0261 4.75 14.75L4.75 11.5C4.75 11.2239 4.97386 11 5.25 11L8.5 11ZM14.75 4.75C15.0261 4.75 15.25 4.97386 15.25 5.25L15.25 8.5C15.25 8.77614 15.0261 9 14.75 9L11.5 9C11.2239 9 11 8.77614 11 8.5L11 5.25C11 4.97386 11.2239 4.75 11.5 4.75L14.75 4.75Z" fill-rule="evenodd" stroke="rgb(255,255,255)" stroke-linecap="round" stroke-linejoin="round" stroke-width="0.5" />
		<path id="ic_public_qrcode_2_4" d="M8.5 4.5C8.91421 4.5 9.25 4.83579 9.25 5.25L9.25 8.5C9.25 8.91421 8.91421 9.25 8.5 9.25L5.25 9.25C4.83579 9.25 4.5 8.91421 4.5 8.5L4.5 5.25C4.5 4.83579 4.83579 4.5 5.25 4.5L8.5 4.5ZM8.5 5L5.25 5C5.11193 5 5 5.11193 5 5.25L5 8.5C5 8.63807 5.11193 8.75 5.25 8.75L8.5 8.75C8.63807 8.75 8.75 8.63807 8.75 8.5L8.75 5.25C8.75 5.11193 8.63807 5 8.5 5ZM8.5 10.75C8.91421 10.75 9.25 11.0858 9.25 11.5L9.25 14.75C9.25 15.1642 8.91421 15.5 8.5 15.5L5.25 15.5C4.83579 15.5 4.5 15.1642 4.5 14.75L4.5 11.5C4.5 11.0858 4.83579 10.75 5.25 10.75L8.5 10.75ZM8.5 11.25L5.25 11.25C5.11193 11.25 5 11.3619 5 11.5L5 14.75C5 14.8881 5.11193 15 5.25 15L8.5 15C8.63807 15 8.75 14.8881 8.75 14.75L8.75 11.5C8.75 11.3619 8.63807 11.25 8.5 11.25ZM14.75 4.5C15.1642 4.5 15.5 4.83579 15.5 5.25L15.5 8.5C15.5 8.91421 15.1642 9.25 14.75 9.25L11.5 9.25C11.0858 9.25 10.75 8.91421 10.75 8.5L10.75 5.25C10.75 4.83579 11.0858 4.5 11.5 4.5L14.75 4.5ZM14.75 5L11.5 5C11.3619 5 11.25 5.11193 11.25 5.25L11.25 8.5C11.25 8.63807 11.3619 8.75 11.5 8.75L14.75 8.75C14.8881 8.75 15 8.63807 15 8.5L15 5.25C15 5.11193 14.8881 5 14.75 5Z" fill="rgb(255,255,255)" fill-opacity="0" fill-rule="nonzero" />
		<path id="ic_public_qrcode_2_4" d="M9.25 5.25L9.25 8.5C9.25 8.91421 8.91421 9.25 8.5 9.25L5.25 9.25C4.83579 9.25 4.5 8.91421 4.5 8.5L4.5 5.25C4.5 4.83579 4.83579 4.5 5.25 4.5L8.5 4.5C8.91421 4.5 9.25 4.83579 9.25 5.25ZM5.25 5C5.11193 5 5 5.11193 5 5.25L5 8.5C5 8.63807 5.11193 8.75 5.25 8.75L8.5 8.75C8.63807 8.75 8.75 8.63807 8.75 8.5L8.75 5.25C8.75 5.11193 8.63807 5 8.5 5L5.25 5ZM9.25 11.5L9.25 14.75C9.25 15.1642 8.91421 15.5 8.5 15.5L5.25 15.5C4.83579 15.5 4.5 15.1642 4.5 14.75L4.5 11.5C4.5 11.0858 4.83579 10.75 5.25 10.75L8.5 10.75C8.91421 10.75 9.25 11.0858 9.25 11.5ZM5.25 11.25C5.11193 11.25 5 11.3619 5 11.5L5 14.75C5 14.8881 5.11193 15 5.25 15L8.5 15C8.63807 15 8.75 14.8881 8.75 14.75L8.75 11.5C8.75 11.3619 8.63807 11.25 8.5 11.25L5.25 11.25ZM15.5 5.25L15.5 8.5C15.5 8.91421 15.1642 9.25 14.75 9.25L11.5 9.25C11.0858 9.25 10.75 8.91421 10.75 8.5L10.75 5.25C10.75 4.83579 11.0858 4.5 11.5 4.5L14.75 4.5C15.1642 4.5 15.5 4.83579 15.5 5.25ZM11.5 5C11.3619 5 11.25 5.11193 11.25 5.25L11.25 8.5C11.25 8.63807 11.3619 8.75 11.5 8.75L14.75 8.75C14.8881 8.75 15 8.63807 15 8.5L15 5.25C15 5.11193 14.8881 5 14.75 5L11.5 5Z" fill-rule="nonzero" stroke="rgb(255,255,255)" stroke-opacity="0" stroke-linejoin="round" stroke-width="1.5" />
		<path id="ic_public_qrcode_2_5" d="M14.75 11L14.75 12.75L15.25 12.75L15.25 11L14.75 11ZM12.75 11L12.75 11.5833L12.7498 11.5833L12.75 12.75L12.1667 12.75L12.1665 11.5833L11 11.5833L11 11L12.75 11ZM11 13.5L11 15.25L11.5 15.25L11.5 13.5L11 13.5ZM14.75 14.75L14.75 15.25L15.25 15.25L15.25 14.75L14.75 14.75ZM13.5 13.5L13.5 14L14 14L14 13.5L13.5 13.5Z" fill="rgb(255,255,255)" fill-rule="nonzero" />
		<path id="ic_public_qrcode_2_5" d="M14.75 12.75L15.25 12.75L15.25 11L14.75 11L14.75 12.75ZM12.75 11.5833L12.7498 11.5833L12.75 12.75L12.1667 12.75L12.1665 11.5833L11 11.5833L11 11L12.75 11L12.75 11.5833ZM11 15.25L11.5 15.25L11.5 13.5L11 13.5L11 15.25ZM14.75 15.25L15.25 15.25L15.25 14.75L14.75 14.75L14.75 15.25ZM13.5 14L14 14L14 13.5L13.5 13.5L13.5 14Z" fill-rule="nonzero" stroke="rgb(255,255,255)" stroke-linejoin="round" stroke-width="0.5" />
	</g>
</svg>
